<svg width="127" height="27" viewBox="0 0 127 27" fill="none" xmlns="http://www.w3.org/2000/svg">
<path d="M40.5363 15.3081H32.9703L31.6703 19.0001H28.5763L35.0503 0.904053H38.4823L44.9563 19.0001H41.8363L40.5363 15.3081ZM39.7043 12.8901L36.7663 4.49205L33.8023 12.8901H39.7043Z" fill="white"/>
<path d="M53.5432 4.44005C54.6525 4.44005 55.6319 4.66539 56.4812 5.11605C57.3479 5.54939 58.0239 6.09539 58.5092 6.75405V4.67405H61.4992V19.2341C61.4992 20.5514 61.2219 21.7214 60.6672 22.7441C60.1125 23.7841 59.3065 24.5987 58.2492 25.1881C57.2092 25.7774 55.9612 26.0721 54.5052 26.0721C52.5639 26.0721 50.9519 25.6127 49.6692 24.6941C48.3865 23.7927 47.6585 22.5621 47.4852 21.0021H50.4232C50.6485 21.7474 51.1252 22.3454 51.8532 22.7961C52.5985 23.2641 53.4825 23.4981 54.5052 23.4981C55.7012 23.4981 56.6632 23.1341 57.3912 22.4061C58.1365 21.6781 58.5092 20.6207 58.5092 19.2341V16.8421C58.0065 17.5181 57.3219 18.0901 56.4552 18.5581C55.6059 19.0087 54.6352 19.2341 53.5432 19.2341C52.2952 19.2341 51.1512 18.9221 50.1112 18.2981C49.0885 17.6567 48.2739 16.7727 47.6672 15.6461C47.0779 14.5021 46.7832 13.2107 46.7832 11.7721C46.7832 10.3334 47.0779 9.05939 47.6672 7.95005C48.2739 6.84072 49.0885 5.98272 50.1112 5.37605C51.1512 4.75205 52.2952 4.44005 53.5432 4.44005ZM58.5092 11.8241C58.5092 10.8361 58.3012 9.97805 57.8852 9.25005C57.4865 8.52205 56.9579 7.96739 56.2992 7.58605C55.6405 7.20472 54.9299 7.01405 54.1672 7.01405C53.4045 7.01405 52.6939 7.20472 52.0352 7.58605C51.3765 7.95005 50.8392 8.49605 50.4232 9.22405C50.0245 9.93472 49.8252 10.7841 49.8252 11.7721C49.8252 12.7601 50.0245 13.6267 50.4232 14.3721C50.8392 15.1174 51.3765 15.6894 52.0352 16.0881C52.7112 16.4694 53.4219 16.6601 54.1672 16.6601C54.9299 16.6601 55.6405 16.4694 56.2992 16.0881C56.9579 15.7067 57.4865 15.1521 57.8852 14.4241C58.3012 13.6787 58.5092 12.8121 58.5092 11.8241Z" fill="white"/>
<path d="M78.5223 11.4861C78.5223 12.0234 78.4876 12.5087 78.4183 12.9421H67.4723C67.559 14.0861 67.9836 15.0047 68.7463 15.6981C69.509 16.3914 70.445 16.7381 71.5543 16.7381C73.149 16.7381 74.2756 16.0707 74.9343 14.7361H78.1323C77.699 16.0534 76.9103 17.1367 75.7663 17.9861C74.6396 18.8181 73.2356 19.2341 71.5543 19.2341C70.185 19.2341 68.9543 18.9307 67.8623 18.3241C66.7876 17.7001 65.9383 16.8334 65.3143 15.7241C64.7076 14.5974 64.4043 13.2974 64.4043 11.8241C64.4043 10.3507 64.699 9.05939 65.2883 7.95005C65.895 6.82339 66.7356 5.95672 67.8103 5.35005C68.9023 4.74339 70.1503 4.44005 71.5543 4.44005C72.9063 4.44005 74.111 4.73472 75.1683 5.32405C76.2256 5.91339 77.049 6.74539 77.6383 7.82005C78.2276 8.87739 78.5223 10.0994 78.5223 11.4861ZM75.4283 10.5501C75.411 9.45805 75.021 8.58272 74.2583 7.92405C73.4956 7.26539 72.551 6.93605 71.4243 6.93605C70.4016 6.93605 69.5263 7.26539 68.7983 7.92405C68.0703 8.56539 67.637 9.44072 67.4983 10.5501H75.4283Z" fill="white"/>
<path d="M88.6672 4.44005C89.7938 4.44005 90.7992 4.67405 91.6832 5.14205C92.5845 5.61005 93.2865 6.30339 93.7892 7.22205C94.2918 8.14072 94.5432 9.25005 94.5432 10.5501V19.0001H91.6052V10.9921C91.6052 9.70938 91.2845 8.73005 90.6432 8.05405C90.0018 7.36072 89.1265 7.01405 88.0172 7.01405C86.9078 7.01405 86.0238 7.36072 85.3652 8.05405C84.7238 8.73005 84.4032 9.70938 84.4032 10.9921V19.0001H81.4392V4.67405H84.4032V6.31205C84.8885 5.72272 85.5038 5.26339 86.2492 4.93405C87.0118 4.60472 87.8178 4.44005 88.6672 4.44005Z" fill="white"/>
<path d="M97.3359 11.8241C97.3359 10.3507 97.6306 9.05939 98.2199 7.95005C98.8266 6.82339 99.6586 5.95672 100.716 5.35005C101.773 4.74339 102.987 4.44005 104.356 4.44005C106.089 4.44005 107.519 4.85605 108.646 5.68805C109.79 6.50272 110.561 7.67272 110.96 9.19805H107.762C107.502 8.48739 107.086 7.93272 106.514 7.53405C105.942 7.13539 105.223 6.93605 104.356 6.93605C103.143 6.93605 102.172 7.36939 101.444 8.23605C100.733 9.08539 100.378 10.2814 100.378 11.8241C100.378 13.3667 100.733 14.5714 101.444 15.4381C102.172 16.3047 103.143 16.7381 104.356 16.7381C106.072 16.7381 107.207 15.9841 107.762 14.4761H110.96C110.544 15.9321 109.764 17.0934 108.62 17.9601C107.476 18.8094 106.055 19.2341 104.356 19.2341C102.987 19.2341 101.773 18.9307 100.716 18.3241C99.6586 17.7001 98.8266 16.8334 98.2199 15.7241C97.6306 14.5974 97.3359 13.2974 97.3359 11.8241Z" fill="white"/>
<path d="M126.81 4.67405L118.022 25.7341H114.954L117.866 18.7661L112.224 4.67405H115.526L119.556 15.5941L123.742 4.67405H126.81Z" fill="white"/>
<path fill-rule="evenodd" clip-rule="evenodd" d="M11.2626 1.58105H11.4596H14.5221H18.3318C20.5175 1.58105 22.1828 2.0135 23.3277 2.87838C24.4725 3.72597 25.045 4.86761 25.045 6.30332C25.045 7.27199 24.8195 8.10228 24.3685 8.79419C23.9451 9.42741 23.3842 9.9311 22.6858 10.3052C22.9064 10.3774 23.1204 10.4618 23.3277 10.5585C24.143 10.9218 24.7848 11.458 25.2531 12.1672C25.7388 12.8764 25.9817 13.7586 25.9817 14.8138C25.9817 16.3706 25.3832 17.5814 24.1863 18.4463C22.9894 19.3112 21.2114 19.7436 18.8522 19.7436H14.5221H11.4596H11.2626V13.1498H14.7191V17.0971H18.6441C19.9104 17.0971 20.8818 16.8895 21.5583 16.4744C22.2348 16.0592 22.5731 15.3932 22.5731 14.4765C22.5731 13.577 22.2348 12.9197 21.5583 12.5045C20.8818 12.0721 19.9104 11.8559 18.6441 11.8559H14.7191V11.8568H11.2626V11.8543H8.21933C4.1903 11.8543 3.3826 15.203 3.3826 15.203V19.7436H0V1.58105H3.3826V11.2418C3.3826 11.2418 4.14921 9.27705 8.98893 9.27705H10.4046V9.27708H15.4532V9.26521L17.9675 9.23528C19.1471 9.23528 20.0491 9.0277 20.6736 8.61256C21.3154 8.19742 21.6364 7.5747 21.6364 6.74441C21.6364 5.89683 21.3154 5.26546 20.6736 4.85032C20.0491 4.43517 19.1471 4.2276 17.9675 4.2276H14.7191V7.98415H11.2626V1.58105Z" fill="url(#paint0_linear_107_1018)"/>
<defs>
<linearGradient id="paint0_linear_107_1018" x1="0" y1="1.58105" x2="25.9817" y2="19.7682" gradientUnits="userSpaceOnUse">
<stop stop-color="#FF6B00"/>
<stop offset="1" stop-color="#FF9900"/>
</linearGradient>
</defs>
</svg>
