<?xml version="1.0" encoding="utf-8"?>
<!-- Generator: Adobe Illustrator 25.2.0, SVG Export Plug-In . SVG Version: 6.00 Build 0)  -->
<svg version="1.1" id="Шар_1" xmlns="http://www.w3.org/2000/svg" xmlns:xlink="http://www.w3.org/1999/xlink" x="0px" y="0px"
	 width="127px" height="40px" viewBox="0 0 127 40" style="enable-background:new 0 0 127 40;" xml:space="preserve">
<style type="text/css">
	.st0{fill:#1E4894;}
	.st1{fill-rule:evenodd;clip-rule:evenodd;fill:url(#SVGID_1_);}
</style>
<g>
	<path class="st0" d="M40.7,26.2h-7.6l-1.3,3.7h-3.1l6.5-18.1h3.4l6.5,18.1H42L40.7,26.2z M39.9,23.8L37,15.4l-3,8.4H39.9z"/>
	<path class="st0" d="M53.7,15.4c1.1,0,2.1,0.2,2.9,0.7c0.9,0.4,1.5,1,2,1.6v-2.1h3v14.6c0,1.3-0.3,2.5-0.8,3.5
		c-0.6,1-1.4,1.9-2.4,2.4c-1,0.6-2.3,0.9-3.7,0.9c-1.9,0-3.6-0.5-4.8-1.4c-1.3-0.9-2-2.1-2.2-3.7h2.9c0.2,0.7,0.7,1.3,1.4,1.8
		c0.7,0.5,1.6,0.7,2.7,0.7c1.2,0,2.2-0.4,2.9-1.1c0.7-0.7,1.1-1.8,1.1-3.2v-2.4c-0.5,0.7-1.2,1.2-2.1,1.7c-0.8,0.5-1.8,0.7-2.9,0.7
		c-1.2,0-2.4-0.3-3.4-0.9c-1-0.6-1.8-1.5-2.4-2.7c-0.6-1.1-0.9-2.4-0.9-3.9c0-1.4,0.3-2.7,0.9-3.8c0.6-1.1,1.4-2,2.4-2.6
		C51.3,15.7,52.5,15.4,53.7,15.4z M58.7,22.8c0-1-0.2-1.8-0.6-2.6c-0.4-0.7-0.9-1.3-1.6-1.7c-0.7-0.4-1.4-0.6-2.1-0.6
		c-0.8,0-1.5,0.2-2.1,0.6c-0.7,0.4-1.2,0.9-1.6,1.6c-0.4,0.7-0.6,1.6-0.6,2.5c0,1,0.2,1.9,0.6,2.6c0.4,0.7,1,1.3,1.6,1.7
		c0.7,0.4,1.4,0.6,2.1,0.6c0.8,0,1.5-0.2,2.1-0.6c0.7-0.4,1.2-0.9,1.6-1.7C58.5,24.6,58.7,23.7,58.7,22.8z"/>
	<path class="st0" d="M78.7,22.4c0,0.5,0,1-0.1,1.5H67.7c0.1,1.1,0.5,2.1,1.3,2.8c0.8,0.7,1.7,1,2.8,1c1.6,0,2.7-0.7,3.4-2h3.2
		c-0.4,1.3-1.2,2.4-2.4,3.2c-1.1,0.8-2.5,1.2-4.2,1.2c-1.4,0-2.6-0.3-3.7-0.9c-1.1-0.6-1.9-1.5-2.5-2.6c-0.6-1.1-0.9-2.4-0.9-3.9
		c0-1.5,0.3-2.8,0.9-3.9c0.6-1.1,1.4-2,2.5-2.6c1.1-0.6,2.3-0.9,3.7-0.9c1.4,0,2.6,0.3,3.6,0.9c1.1,0.6,1.9,1.4,2.5,2.5
		C78.4,19.8,78.7,21,78.7,22.4z M75.6,21.5c0-1.1-0.4-2-1.2-2.6c-0.8-0.7-1.7-1-2.8-1c-1,0-1.9,0.3-2.6,1c-0.7,0.6-1.2,1.5-1.3,2.6
		H75.6z"/>
	<path class="st0" d="M88.9,15.4c1.1,0,2.1,0.2,3,0.7c0.9,0.5,1.6,1.2,2.1,2.1c0.5,0.9,0.8,2,0.8,3.3v8.4h-2.9v-8
		c0-1.3-0.3-2.3-1-2.9c-0.6-0.7-1.5-1-2.6-1c-1.1,0-2,0.3-2.7,1c-0.6,0.7-1,1.7-1,2.9v8h-3V15.6h3v1.6c0.5-0.6,1.1-1,1.8-1.4
		C87.2,15.5,88,15.4,88.9,15.4z"/>
	<path class="st0" d="M97.5,22.8c0-1.5,0.3-2.8,0.9-3.9c0.6-1.1,1.4-2,2.5-2.6c1.1-0.6,2.3-0.9,3.6-0.9c1.7,0,3.2,0.4,4.3,1.2
		c1.1,0.8,1.9,2,2.3,3.5H108c-0.3-0.7-0.7-1.3-1.2-1.7c-0.6-0.4-1.3-0.6-2.2-0.6c-1.2,0-2.2,0.4-2.9,1.3c-0.7,0.8-1.1,2-1.1,3.6
		c0,1.5,0.4,2.7,1.1,3.6c0.7,0.9,1.7,1.3,2.9,1.3c1.7,0,2.9-0.8,3.4-2.3h3.2c-0.4,1.5-1.2,2.6-2.3,3.5c-1.1,0.8-2.6,1.3-4.3,1.3
		c-1.4,0-2.6-0.3-3.6-0.9c-1.1-0.6-1.9-1.5-2.5-2.6C97.8,25.5,97.5,24.2,97.5,22.8z"/>
	<path class="st0" d="M127,15.6l-8.8,21.1h-3.1l2.9-7l-5.6-14.1h3.3l4,10.9l4.2-10.9H127z"/>
</g>
<linearGradient id="SVGID_1_" gradientUnits="userSpaceOnUse" x1="-0.7345" y1="27.1133" x2="25.2472" y2="8.9262" gradientTransform="matrix(1 0 0 -1 0 40)">
	<stop  offset="0" style="stop-color:#FF6B00"/>
	<stop  offset="1" style="stop-color:#FF9900"/>
</linearGradient>
<path class="st1" d="M11.3,11.8h0.2h3.1h3.8c2.2,0,3.9,0.4,5,1.3c1.1,0.8,1.7,2,1.7,3.4c0,1-0.2,1.8-0.7,2.5c-0.4,0.6-1,1.1-1.7,1.5
	c0.2,0.1,0.4,0.2,0.6,0.3c0.8,0.4,1.5,0.9,1.9,1.6c0.5,0.7,0.7,1.6,0.7,2.6c0,1.6-0.6,2.8-1.8,3.6c-1.2,0.9-3,1.3-5.3,1.3h-4.3h-3.1
	h-0.2v-6.6h3.5v3.9h3.9c1.3,0,2.2-0.2,2.9-0.6c0.7-0.4,1-1.1,1-2c0-0.9-0.3-1.6-1-2c-0.7-0.4-1.6-0.6-2.9-0.6h-3.9v0h-3.5v0h-3
	c-4,0-4.8,3.3-4.8,3.3V30H0V11.8h3.4v9.7c0,0,0.8-2,5.6-2h1.4l0,0h5v0l2.5,0c1.2,0,2.1-0.2,2.7-0.6c0.6-0.4,1-1,1-1.9
	c0-0.8-0.3-1.5-1-1.9c-0.6-0.4-1.5-0.6-2.7-0.6h-3.2v3.8h-3.5V11.8z"/>
</svg>
