<?xml version="1.0" encoding="utf-8"?>
<!-- Generator: Adobe Illustrator 25.2.0, SVG Export Plug-In . SVG Version: 6.00 Build 0)  -->
<svg version="1.1" id="Шар_1" xmlns="http://www.w3.org/2000/svg" xmlns:xlink="http://www.w3.org/1999/xlink" x="0px" y="0px"
	 width="311px" height="188px" viewBox="0 0 311 188" style="enable-background:new 0 0 311 188;" xml:space="preserve">
<style type="text/css">
	.st0{fill:#3A4245;}
	.st1{fill:#262C2D;}
	.st2{fill:#121515;}
	.st3{fill:#FFFFFF;}
	.st4{fill:#ADC8FA;}
	.st5{fill-rule:evenodd;clip-rule:evenodd;fill:#262C2D;}
	.st6{fill-rule:evenodd;clip-rule:evenodd;fill:#121515;}
	.st7{opacity:0.4;fill-rule:evenodd;clip-rule:evenodd;fill:#636F73;enable-background:new    ;}
	.st8{fill:url(#SVGID_1_);}
	.st9{fill:url(#SVGID_2_);}
	.st10{fill:#4E4F53;}
	.st11{fill-rule:evenodd;clip-rule:evenodd;fill:url(#SVGID_3_);}
	.st12{fill:none;}
	.st13{fill:#1C3343;}
	.st14{fill:#213744;}
	.st15{fill-rule:evenodd;clip-rule:evenodd;fill:#8EADC1;}
	.st16{fill:#36454C;}
</style>
<g>
	<path class="st0" d="M37,21.3c0-3.6,0-5.5,0.7-6.9c0.6-1.2,1.6-2.2,2.8-2.8c1.5-0.7,3.3-0.7,6.9-0.7H247c3.6,0,5.5,0,6.8,0.7
		c1.2,0.6,2.2,1.6,2.8,2.8c0.7,1.4,0.7,3.2,0.7,6.9v130.8c0,3.6,0,5.5-0.7,6.9c-0.6,1.2-1.6,2.2-2.8,2.8c-1.4,0.7-3.2,0.7-6.8,0.7
		H47.4c-3.6,0-5.5,0-6.8-0.7c-1.2-0.6-2.2-1.6-2.8-2.8c-0.7-1.4-0.7-3.2-0.7-6.9V21.3H37z"/>
	<path class="st1" d="M37.6,21c0-3.3,0-5,0.6-6.3c0.6-1.1,1.5-2,2.6-2.6c1.3-0.7,2.9-0.7,6.3-0.7h200.2c3.3,0,5,0,6.3,0.7
		c1.1,0.6,2,1.5,2.6,2.6c0.6,1.3,0.6,2.9,0.6,6.3v131.4c0,3.3,0,5-0.6,6.3c-0.6,1.1-1.5,2-2.6,2.6c-1.3,0.6-2.9,0.6-6.3,0.6H47.1
		c-3.3,0-5,0-6.3-0.6c-1.1-0.6-2-1.5-2.6-2.6c-0.6-1.3-0.6-2.9-0.6-6.3C37.6,152.4,37.6,21,37.6,21z"/>
	<path class="st2" d="M38.1,20.7c0-3,0-4.6,0.6-5.7c0.5-1.1,1.3-1.9,2.4-2.4c1.2-0.6,2.7-0.6,5.7-0.6h200.9c3,0,4.5,0,5.7,0.6
		c1,0.5,1.8,1.3,2.4,2.4c0.6,1.2,0.6,2.7,0.6,5.7v132.1c0,3,0,4.6-0.6,5.7c-0.5,1-1.3,1.8-2.4,2.4c-1.2,0.6-2.7,0.6-5.7,0.6H46.8
		c-3,0-4.5,0-5.7-0.6c-1-0.5-1.8-1.3-2.4-2.4c-0.6-1.2-0.6-2.7-0.6-5.7C38.1,152.9,38.1,20.7,38.1,20.7z"/>
	<path class="st1" d="M38.1,154.2h218.2v4.1H38.1V154.2z"/>
	<g>
		<g>
			<path id="reuse-0_1_" class="st3" d="M42.7,19.8h209v131h-209V19.8z"/>
		</g>
	</g>
	<path class="st4" d="M49.2,26.9h196v17h-196V26.9z M49.2,46.9h97v4h-97V46.9z M49.2,53.9h143v14h-143V53.9z M49.2,70.9h143v3h-143
		V70.9z M49.2,119.9h143v3h-143V119.9z M49.2,124.9h143v3h-143V124.9z M49.2,129.9h196v16h-196V129.9z M197.2,46.9h48v39h-48V46.9z
		 M197.2,88.9h48v39h-48V88.9z M92.2,77.9h58v39h-58V77.9z"/>
	<path class="st5" d="M147.2,17c0.4,0,0.7-0.3,0.7-0.7s-0.3-0.7-0.7-0.7s-0.7,0.3-0.7,0.7S146.8,17,147.2,17z"/>
	<path class="st6" d="M147.2,16.7c0.3,0,0.5-0.2,0.5-0.5c0-0.3-0.2-0.5-0.5-0.5s-0.5,0.2-0.5,0.5C146.7,16.5,146.9,16.7,147.2,16.7z
		"/>
	<path class="st7" d="M147.2,16.2C147.3,16.2,147.3,16.1,147.2,16.2c0.1-0.1,0.1-0.2,0-0.2S147.1,16,147.2,16.2
		C147.1,16.1,147.1,16.2,147.2,16.2z"/>
	
		<linearGradient id="SVGID_1_" gradientUnits="userSpaceOnUse" x1="11.2" y1="-3.65" x2="147.3" y2="-3.65" gradientTransform="matrix(1 0 0 1 0 164)">
		<stop  offset="0" style="stop-color:#303135"/>
		<stop  offset="0" style="stop-color:#535458"/>
		<stop  offset="0" style="stop-color:#4D4E52"/>
		<stop  offset="0.1" style="stop-color:#333438"/>
		<stop  offset="0.1" style="stop-color:#35363A"/>
		<stop  offset="0.1" style="stop-color:#4E4F53"/>
		<stop  offset="0.8" style="stop-color:#818286"/>
		<stop  offset="1" style="stop-color:#818286"/>
	</linearGradient>
	<path class="st8" d="M11.2,158.6c0-0.2,0.1-0.3,0.3-0.3H147c0.1,0,0.3,0.1,0.3,0.3v3.9H11.2V158.6z"/>
	
		<linearGradient id="SVGID_2_" gradientUnits="userSpaceOnUse" x1="283.1" y1="-3.65" x2="147.1" y2="-3.65" gradientTransform="matrix(1 0 0 1 0 164)">
		<stop  offset="0" style="stop-color:#303135"/>
		<stop  offset="0" style="stop-color:#535458"/>
		<stop  offset="0" style="stop-color:#4D4E52"/>
		<stop  offset="0.1" style="stop-color:#333438"/>
		<stop  offset="0.1" style="stop-color:#35363A"/>
		<stop  offset="0.1" style="stop-color:#4E4F53"/>
		<stop  offset="0.8" style="stop-color:#818286"/>
		<stop  offset="1" style="stop-color:#818286"/>
	</linearGradient>
	<path class="st9" d="M283.1,158.6c0-0.2-0.1-0.3-0.3-0.3H147.4c-0.1,0-0.3,0.1-0.3,0.3v3.9h136V158.6z"/>
	<g>
		<path id="reuse-1" class="st10" d="M130.9,161.3h32.6c1.7,0.1,3-1.2,3.1-2.9c0,0,0-0.1,0-0.1h-38.8
			C127.8,159.9,129.2,161.3,130.9,161.3z"/>
	</g>
	<g>
		<path id="reuse-1_1_" class="st10" d="M130.9,161.3h32.6c1.7,0.1,3-1.2,3.1-2.9c0,0,0-0.1,0-0.1h-38.8
			C127.8,159.9,129.2,161.3,130.9,161.3z"/>
	</g>
	<g>
		
			<image style="overflow:visible;" width="303" height="35" xlink:href="9EB03BE45A54DCFB.png"  transform="matrix(1 0 0 1 2.6 151.05)">
		</image>
		<g>
			
				<linearGradient id="SVGID_3_" gradientUnits="userSpaceOnUse" x1="147.2" y1="-1.45" x2="147.2" y2="2.35" gradientTransform="matrix(1 0 0 1 0 164)">
				<stop  offset="0" style="stop-color:#303135"/>
				<stop  offset="1" style="stop-color:#08090D"/>
			</linearGradient>
			<path class="st11" d="M147,162.6H11.2c0,0,6,3.8,25.5,3.8h221c19.5,0,25.5-3.8,25.5-3.8H147z"/>
		</g>
	</g>
	<path class="st3" d="M302.9,46.3c-1.2-0.5-2.8-0.5-6-0.5h-2c-0.5,0-0.9,0.4-0.9,0.9v0.8c0,1.9-1.5,3.4-3.3,3.4h-25.2
		c-1.8-0.1-3.3-1.6-3.3-3.4v-0.8c0-0.5-0.4-0.9-0.9-0.9h-2c-3.1,0-4.7,0-6,0.5c-2,0.7-3.5,2.3-4.3,4.3c-0.5,1.3-0.5,2.8-0.5,6v106.7
		c0,3.1,0,4.7,0.5,6c0.7,2,2.3,3.5,4.3,4.3c1.2,0.5,2.8,0.5,6,0.5h37.6c3.1,0,4.7,0,6-0.5c2-0.7,3.5-2.3,4.3-4.3
		c0.5-1.3,0.5-2.8,0.5-6V56.6c0-3.1,0-4.7-0.5-6C306.4,48.6,304.8,47.1,302.9,46.3L302.9,46.3z"/>
	<path class="st12" d="M245.2,42.9H311v134.1h-65.8V42.9z"/>
	<path class="st13" d="M310.6,77.3h0.2l0.2,0.2v15.3l-0.2,0.2h-0.2V77.3z M245.7,96.3h-0.2c-0.1,0-0.2-0.1-0.2-0.2v-9.2l0.2-0.2h0.2
		V96.3z"/>
	<path class="st14" d="M245.7,83.5h-0.2c-0.1,0-0.2-0.1-0.2-0.2v-9.2l0.2-0.2h0.2V83.5z M245.7,69.2h-0.2c-0.1,0-0.2-0.1-0.2-0.2
		v-4.5l0.2-0.2h0.2V69.2z"/>
	<path class="st15" d="M296.5,43.2h-36.7c-3.7,0-5.5,0-7,0.5c-3,1-5.3,3.3-6.3,6.3c-0.5,1.5-0.5,3.3-0.5,7v105.8c0,3.7,0,5.6,0.5,7
		c1,3,3.3,5.3,6.3,6.3c1.5,0.5,3.3,0.5,7,0.5h36.7c3.7,0,5.5,0,7-0.5c3-1,5.3-3.3,6.3-6.3c0.5-1.5,0.5-3.3,0.5-7V57.1
		c0-3.7,0-5.6-0.5-7c-1-3-3.3-5.3-6.3-6.3C302,43.2,300.2,43.2,296.5,43.2z M246.3,50c-0.5,1.5-0.5,3.4-0.5,7.1v105.8
		c0,3.7,0,5.6,0.5,7.1c1,3,3.4,5.4,6.4,6.4c1.5,0.5,3.4,0.5,7.1,0.5h36.7c3.7,0,5.6,0,7.1-0.5c3-1,5.4-3.4,6.4-6.4
		c0.5-1.5,0.5-3.4,0.5-7.1V57.1c0-3.7,0-5.6-0.5-7.1c-1-3-3.4-5.4-6.4-6.4c-1.5-0.5-3.4-0.5-7.1-0.5h-36.7c-3.7,0-5.6,0-7.1,0.5
		C249.7,44.5,247.3,46.9,246.3,50z"/>
	<path class="st16" d="M296.7,42.9h0.9v0.8h-0.9V42.9z M309.8,56.3h0.8v0.9h-0.8V56.3z M245.7,56.3h0.8v0.9h-0.8V56.3z M245.7,162.7
		h0.8v0.9h-0.8V162.7z M309.8,162.7h0.8v0.9h-0.8V162.7z M258.6,176.3h0.9v0.8h-0.9V176.3z"/>
	<path class="st4" d="M253.2,53.9h49v14h-49V53.9z M253.2,69.9h34v3h-34V69.9z M253.2,74.9h49v3h-49V74.9z M253.2,79.9h49v3h-49
		V79.9z M253.2,124.9h34v3h-34V124.9z M253.2,129.9h49v3h-49V129.9z M253.2,134.9h49v3h-49V134.9z M253.2,84.9h49v28h-49V84.9z
		 M253.2,114.9h49v8h-49V114.9z M253.2,139.9h49v9h-49V139.9z"/>
	<path class="st5" d="M284.7,49.1c0.7,0,1.2-0.6,1.2-1.2s-0.6-1.2-1.2-1.2c-0.7,0-1.2,0.6-1.2,1.2S284,49.1,284.7,49.1z"/>
	<path class="st6" d="M284.7,48.7c0.4,0,0.8-0.3,0.8-0.8s-0.3-0.8-0.8-0.8s-0.8,0.3-0.8,0.8S284.3,48.7,284.7,48.7z"/>
	<path class="st7" d="M284.7,47.7l0.2-0.2l-0.2-0.2l-0.2,0.2L284.7,47.7z"/>
	<path class="st5" d="M274.3,47.9c0-0.3,0.2-0.5,0.5-0.5h6.7c0.3,0,0.5,0.2,0.5,0.5s-0.2,0.5-0.5,0.5h-6.7
		C274.5,48.4,274.3,48.2,274.3,47.9z"/>
	<path class="st14" d="M310.1,49.9c-1-3.1-3.4-5.5-6.5-6.5c-1.5-0.5-3.4-0.5-7.2-0.5h-36.6c-3.8,0-5.6,0-7.2,0.5
		c-3.1,1-5.5,3.4-6.5,6.5c-0.5,1.5-0.5,3.4-0.5,7.2v105.6c0,3.8,0,5.7,0.5,7.2c1,3.1,3.4,5.5,6.5,6.5c1.5,0.5,3.4,0.5,7.2,0.5h36.6
		c3.8,0,5.6,0,7.2-0.5c3.1-1,5.5-3.4,6.5-6.5c0.5-1.5,0.5-3.4,0.5-7.2V57.1C310.6,53.3,310.6,51.4,310.1,49.9z M307.6,163.3
		c0,3.1,0,4.7-0.5,6c-0.7,2-2.3,3.5-4.3,4.3c-1.2,0.5-2.8,0.5-6,0.5h-37.6c-3.1,0-4.7,0-6-0.5c-2-0.7-3.5-2.3-4.3-4.3
		c-0.5-1.3-0.5-2.8-0.5-6V56.6c0-3.1,0-4.7,0.5-6c0.7-2,2.3-3.5,4.3-4.3c1.2-0.5,2.8-0.5,6-0.5h2c0.5,0,0.9,0.4,0.9,0.9v0.8
		c0,1.9,1.5,3.4,3.3,3.4h25.2c1.8,0,3.3-1.5,3.3-3.4v-0.8c0-0.5,0.4-0.9,0.9-0.9h2c3.1,0,4.7,0,6,0.5c2,0.7,3.5,2.3,4.3,4.3
		c0.5,1.3,0.5,2.8,0.5,6L307.6,163.3L307.6,163.3z"/>
</g>
</svg>
