<?xml version="1.0" encoding="utf-8"?><svg xmlns="http://www.w3.org/2000/svg" xml:space="preserve" id="Шар_1" x="0" y="0" style="enable-background:new 0 0 92.9 100" version="1.1" viewBox="0 0 92.9 100"><style>.st0{fill-rule:evenodd;clip-rule:evenodd;fill:url(#SVGID_1_);}
	.st1{fill-rule:evenodd;clip-rule:evenodd;fill:url(#SVGID_2_);}</style><linearGradient id="SVGID_1_" x1="5.23" x2="84.93" y1="-776.04" y2="-855.02" gradientTransform="matrix(1 0 0 -1 0 -762.88)" gradientUnits="userSpaceOnUse"><stop offset="0" style="stop-color:#2D78F6"/><stop offset=".26" style="stop-color:#6A26D6"/><stop offset=".76" style="stop-color:#EB3323"/><stop offset=".96" style="stop-color:#F7CB45"/></linearGradient><path d="M40.5 100c-4.2 0-8.4-.4-12.7-1.3-3.5-.7-8.8-2.1-14-4.5-1.8-.9-3.4-1.8-4.7-2.6-1.3-.9-2.1-1.7-2.6-2.4-.9-1.4-1.3-2.5-1.3-3.6 0-.9.2-1.8.5-3 .1-.2.1-.4.2-.6 1.6-6 1.2-11.6.6-16.7-.5-4.6-.8-9-.9-13-.2-.3-.4-.7-.6-1.1-.9-1.7-2.2-4-3.3-6.5C.9 42.8.4 41.1.1 39.6c-.3-1.8-.2-3.4.3-4.6.5-1.5 1.9-2.7 4.3-3.7 1.1-.5 2.4-.9 4-1.4 1.2-3.2 2.8-5.9 4.6-8.1 4-4.7 8.2-9.6 12.4-13.2 4.6-3.9 8.9-6.2 13.7-7.2C40.7 1 42 .8 43.3.6c1.1-.2 2.2-.4 3.3-.4h.8c1.1 0 2.3.1 3.4.3 1 .1 2.1.2 3.1.5 1.5.1 3 .4 4.4.9.5.1 1 .2 1.5.4 1.5.2 2.8.6 4.1 1.1.9.3 1.8.6 2.6 1 .3.1.5.2.8.3 1.7.3 3.3 1 4.8 2l.6.3c3.2 1.3 6 3.6 8.5 6.9 2.1 2.9 4 6.5 5.5 10.8a75.9 75.9 0 0 1 3.8 16.8c.4 2.4.7 4.9.9 7 .5 1.9.7 3.4.8 4.6v.3c.8 3.9 1 7.4.6 10.5.5 4.5-.8 8.8-3.8 12.6-1.5 3.3-3.6 6.2-6.4 8.4-3 2.4-6.9 4.2-11.5 5.4-2 1.3-4.4 2.6-7.1 4.1-6.9 3.7-14.8 5.6-23.5 5.6zM5.9 52.7c.1 3.9.4 8.1.9 12.4 1 8.7.3 13.3-.6 16.8-.1.2-.1.4-.2.6-.3 1.1-.5 2-.5 2.9 0 1.1.4 2.1 1.2 3.5.5.7 1.3 1.5 2.5 2.4 1.3.9 2.8 1.8 4.6 2.6a65.57 65.57 0 0 0 26.6 5.8c8.7 0 16.5-1.9 23.3-5.5 2.4-1.3 4.5-2.5 6.4-3.6l-1.6.3c-1.3.7-2.7 1.5-4.2 2.3-6.9 3.7-14.8 5.6-23.5 5.6-4.1 0-8.3-.4-12.4-1.2-3.5-.7-8.8-2-13.9-4.5-1.8-.9-3.4-1.7-4.6-2.6-1.2-.9-2.1-1.7-2.6-2.4-.9-1.4-1.3-2.5-1.3-3.6 0-.9.2-1.8.5-3 .1-.2.1-.4.2-.6 1.6-6 1.2-11.6.6-16.7-.4-3.5-.7-6.8-.8-10-.1-.6-.3-1-.6-1.5.1.1 0 .1 0 0zm1 2.3c.1 2.9.4 6 .7 9.1 1 8.7.3 13.3-.6 16.8-.1.2-.1.4-.2.6-.3 1.1-.5 2-.5 2.9 0 1.1.4 2.1 1.2 3.5.5.7 1.3 1.5 2.5 2.3 1.2.9 2.8 1.7 4.6 2.6 2.8 1.3 7.5 3.2 13.8 4.4 4.1.8 8.3 1.2 12.4 1.2 8.6 0 16.5-1.9 23.3-5.5l3.5-1.9c-.3.1-.7.1-1 .2l-.5.3c-.1 0-.2.1-.2.1-.1 0-.1.1-.2.1l-.6.3c-6.9 3.7-14.8 5.6-23.5 5.6-4.1 0-8.3-.4-12.4-1.2-3.5-.7-8.8-2-13.9-4.5-1.8-.9-3.4-1.7-4.6-2.6-1.2-.9-2.1-1.7-2.6-2.4-.9-1.4-1.3-2.5-1.3-3.6 0-.9.2-1.8.5-3 0-.2.1-.4.2-.6 1.6-6 1.2-11.6.6-16.7-.2-1.6-.3-3.2-.5-4.8-.1-1.3-.4-2.3-.7-3.2zm1.3 5.2.3 2.7c1 8.7.3 13.3-.6 16.8-.1.2-.1.4-.2.6-.3 1.1-.5 2-.5 2.9 0 1.1.4 2.1 1.2 3.5.5.7 1.3 1.5 2.5 2.3 1.2.9 2.8 1.7 4.6 2.6 2.8 1.3 7.5 3.2 13.8 4.4 4.1.8 8.3 1.2 12.4 1.2 4.7 0 9.2-.6 13.4-1.7-3.9.9-8.1 1.4-12.4 1.4-4.1 0-8.3-.4-12.4-1.2-3.5-.7-8.8-2-13.9-4.5-1.8-.9-3.4-1.7-4.6-2.6-1.2-.9-2.1-1.7-2.6-2.4-.9-1.4-1.3-2.5-1.3-3.6 0-.9.2-1.8.5-3 .1-.2.1-.4.2-.6.6-2.4 1.2-5.2 1.1-9.9-.2-1.1-.3-2.3-.4-3.5-.4-1.7-.8-3.7-1.1-5.4zM10 71.1c-.1 3.7-.6 6.1-1.1 8.1-.1.2-.1.4-.2.6-.3 1.1-.5 2-.5 2.9 0 1.1.4 2.1 1.2 3.5.5.7 1.3 1.5 2.5 2.3 1.2.9 2.8 1.7 4.6 2.6 2.8 1.3 7.5 3.2 13.8 4.4 4.1.8 8.3 1.2 12.4 1.2 8.5 0 16.2-1.8 22.9-5.3.1 0 .2-.1.3-.1l-.4.1c-6.5 3.2-13.9 4.8-21.9 4.8-4.1 0-8.3-.4-12.4-1.2-3.5-.7-8.8-2-13.9-4.5-1.8-.9-3.4-1.7-4.6-2.6-1.2-.9-2.1-1.7-2.6-2.4-.9-1.4-1.3-2.5-1.3-3.6 0-.9.2-1.8.5-3 .1-.2.1-.4.2-.6.3-1.1.6-2.6.8-4.4 0-.3-.1-.7-.1-1 0-.6-.1-1.2-.2-1.8zm.5 3.9c-.2 1.3-.5 2.4-.7 3.3-.1.2-.1.4-.2.6-.3 1.1-.5 2-.5 2.9 0 1.1.4 2.1 1.2 3.5.5.7 1.3 1.5 2.5 2.3 1.2.9 2.8 1.7 4.6 2.6 2.8 1.3 7.5 3.2 13.8 4.4 4.1.8 8.3 1.2 12.4 1.2 5.1 0 10-.7 14.6-2-4.2 1.1-8.8 1.7-13.5 1.7-4.1 0-8.3-.4-12.4-1.2l-2.7-.6c-3.1-.5-5.9-1.4-8.7-2.8-.9-.4-1.7-.7-2.5-1.1-1.8-.9-3.4-1.7-4.6-2.6-1.2-.9-2.1-1.7-2.6-2.4-.9-1.4-1.3-2.5-1.3-3.6 0-.9.2-1.8.5-3 .1-.2.1-.4.2-.6 0-.2.1-.4.1-.6-.1-.6-.2-1.3-.2-2zm22.4 19.2c4 .8 8 1.1 11.9 1.1 5.7 0 11.1-.8 16-2.4-4.7 1.4-9.7 2.1-15 2.1-2.8 0-5.7-.2-8.5-.6-1.5 0-3-.1-4.4-.2zm7.4.1A54.9 54.9 0 0 0 54 94c2.5-.4 5-1 7.4-1.8-.5.1-1.1.3-1.6.4l-.4.1c-3 .9-6.4 1.4-10.1 1.4-1.5 0-3.1-.1-4.7-.2-1.6.3-2.9.3-4.3.4zm-7-1.5c1.8.5 3.6 1 5.4 1.3 1.3 0 2.7-.1 4.1-.2l-4-.3c-1.3-.1-2.7-.3-4-.5-.5-.2-1-.2-1.5-.3zm-9.4-2c3 1.1 6.3 2 9.6 2.7l3.6.6c-1.8-.4-3.6-.8-5.3-1.4-1.2-.2-2.4-.4-3.5-.6-1.6-.4-3.1-.9-4.4-1.3zm-7.6-2.9c.4.3.9.6 1.3.9 1.3.8 2.4 1.4 3.4 1.9 2.7 1.1 5.6 2 8.6 2.7 1.1.2 2.2.3 3.4.4.7.1 1.4.1 2.2.1l-1.8-.3c-3.5-.7-8.8-2-13.9-4.5-.1 0-.2-.1-.2-.1-.6-.2-1.2-.5-1.8-.7-.5 0-.9-.2-1.2-.4zm31 5.8h1c4.3-.1 8.3-.5 11.8-1.4.2-.1.5-.1.7-.2-2.8.3-5.5.6-8.1.8-1.9.3-3.7.6-5.4.8zm-4.9-.4 3.1.3c1.3-.1 2.6-.3 4-.5-2.4.1-4.7.2-6.9.2h-.2zm-3.1 0H39h.3zm-27-35.9c.2.4.3.7.5 1.1.2.4.3.8.5 1.1v.1c.8 1.8 1.4 3.3 1.8 4.5.5 1.5.9 3 1.1 4.4l.3 1.4c.2 1.1.4 2.2.6 3.4.6 2.9 1.8 6.7 4.9 11.1.6.8 2.1 2.2 4.7 3.7 2 1.2 5.3 2.8 9.8 4 1.3.3 2.5.6 3.8.8h2.2c3.1 0 6.5-.1 10.1-.4 4.1-.7 8.5-1.6 13.4-2.8.7-.2 1.3-.3 1.9-.5 1.8-1 3.4-2.1 4.8-3.3.8-.7 1.5-1.4 2.2-2.1-2.1 1.3-4.6 2.3-7.3 3-2.8.7-5.8 1-9.2 1-1.9 0-3.7-.1-5-.2-.9-.1-1.6-.1-2.2-.1h-1c-.7 0-1.6.1-2.6.1-4.6 0-8.7-.7-12.3-2.1-8.4-3.3-13.7-10.2-16-20.6-1-4.5-3-8.9-4.9-12.9-.3-.7-.6-1.4-1-2.1-.6-1.3-1-2.2-1.3-3.1-.2 1.8-.3 3.7-.3 5.5.2 1.6.3 3.3.5 5zm12.1 31.5c2 1.2 4.2 2.3 6.4 3.1 1.3.3 2.7.5 4 .7.8.1 1.6.1 2.5.2-1.5-.3-3-.7-4.6-1.1-2.8-.8-5.6-1.8-8.3-2.9zm42.4 1c-.2.1-.4.1-.7.2-3.6.9-7.1 1.7-10.3 2.3 2.1-.2 4.2-.5 6.4-.7 1.2-.4 2.4-.8 3.5-1.2.4-.3.7-.4 1.1-.6zM12.7 77c2.3 4.1 5.9 8 10.3 11 3.1 1.4 6.5 2.6 9.9 3.5 1.1.3 2.1.6 3.2.8-4.3-1.2-7.5-2.7-9.4-3.9-2.7-1.5-4.3-3-4.8-3.8A27.7 27.7 0 0 1 17 73.4c-.3-1.2-.5-2.3-.7-3.4-.1-.5-.2-1-.3-1.4-.3-1.4-.6-2.9-1.1-4.4-.4-1.1-1.1-2.7-1.8-4.5v-.1c-.2-.4-.3-.8-.5-1.1 0-.1-.1-.2-.1-.3.1.6.1 1.3.2 1.9.5 4 .6 7.4.4 10.4-.1 2.6-.3 4.7-.4 6.5zm-.1 4.1c.9 1.9 2.1 3.6 3.8 5.1a22 22 0 0 0 5.8 3.6l.9.3c2 .6 4.1 1.1 6.2 1.6-2.3-1-4.4-2.1-6.4-3.5-.5-.2-1-.4-1.5-.7-3.1-1.5-5.6-3-7-4.3a9.1 9.1 0 0 1-1.8-2.6v.5zm55.8 8.8-.2.1-.2.1c-.3.2-.6.3-1 .5-.2.1-.5.3-.8.4h.3l2.1-1.2s-.1.1-.2.1zm2.3-.9c-1 .6-2.1 1.2-3.2 1.8.3-.1.7-.1 1-.2 1.3-.7 2.5-1.5 3.6-2.2l-1.4.6zm2.6-1c-1.2.8-2.5 1.6-4 2.5.5-.1 1.1-.2 1.6-.4 1.5-1 2.9-1.9 4.2-2.8-.6.2-1.3.5-1.8.7zm2.8-1.1c-1.3 1-2.7 2-4.3 3 4.2-1.2 7.7-2.9 10.5-5.1 2.5-2 4.5-4.5 5.9-7.3-1.3 1.5-2.9 2.9-4.7 4.3-.6.9-1.2 1.7-2 2.3a23.12 23.12 0 0 1-5.4 2.8zm-65.2-9.2c0 .2-.1.4-.1.5-.3 1.1-.5 2-.5 2.9 0 1.1.4 2.1 1.2 3.5.5.7 1.3 1.5 2.5 2.3 1 .7 2.2 1.4 3.6 2.1 0 0-.1 0-.1-.1-.8-.5-1.5-1-2.2-1.6-.4-.2-.6-.4-.9-.5-.7-.5-1.2-1.2-1.5-1.9-.3-.3-.5-.5-.6-.8-.9-1.4-1.3-2.5-1.3-3.6 0-.4 0-.9.2-1.4-.2-.4-.3-.9-.3-1.4zm3.3 8.1c.3.2.5.4.8.6 1.2.8 2.7 1.7 4.4 2.5.2.1.5.2.7.2-1.5-.8-2.8-1.7-3.9-2.7-1.5-1.3-2.7-2.9-3.6-4.6 0 .5.1.9.1 1.3.4 1 .9 1.9 1.5 2.7zm72.5-15.7c-1.4 2.2-3 4.5-4.8 6.8-.9 1.5-2 2.9-3.2 4.1-2.8 3.1-5.9 5.8-9.3 7.9.3-.1.6-.2 1-.3l.1-.1.1-.1c3-1.7 5.5-3.3 7.6-4.8 2.5-2 4.4-3.9 6-6 .3-.4.5-.9.8-1.3.3-.6.6-1.3.8-1.9.4-1.3.7-2.8.9-4.3zM73.4 87.6c-.4.2-.7.3-1.1.5 0 0-.1 0-.1.1.3-.1.7-.3 1-.4 0-.1.1-.1.2-.2zm-57.9-.4c.4.2.9.5 1.5.7-.7-.4-1.4-.8-2-1.3.1.3.3.5.5.6zm35.8.1c.6 0 1.3 0 2.2.1 1.4.1 3.1.2 5 .2 3.4 0 6.4-.3 9.1-1 3.2-.8 6.1-2.1 8.5-3.8 1.9-1.9 3.7-3.9 5.4-5.8.1-.1.2-.3.3-.4 1.3-2.2 2.4-4.7 3.1-7.6 1.3-5 .8-11-1.5-17.8-1.9-5.8-5-12-9.2-18.5-3.4-5.3-7.6-10.7-11.7-15.2-1.8-2-3.5-3.7-5.1-5.1-1.5-1.3-2.7-2.3-3.6-2.8L52.6 9c-1.5.6-3.1 1.3-4.6 2.1a35 35 0 0 1 7.8 5c8.9 7.4 16.4 19.1 21.1 27.7 5.3 9.6 7 17.8 5 24.2-1.3 4.1-4 7.4-8 9.9-7.3 4.1-14.7 6.2-21.9 6.2-5.9 0-11.6-1.5-16.4-4.2-4.3-2.5-7.6-5.9-9.3-9.6-1.6-3.3-2.2-4.9-3.1-7.4-.7-1.8-1.5-4-3-7.6-3.1-7.6-4.6-14-4.4-19.6-.8 1.6-1.5 3.3-2.2 5-.5 1.8-.8 3.8-1 5.8.4 1 .9 2.1 1.5 3.6.3.7.6 1.3.9 2 1.8 3.9 3.9 8.4 4.9 12.9 2.2 10.3 7.6 17.2 15.8 20.4 3.6 1.4 7.5 2.1 12.2 2.1 1 0 1.9 0 2.6-.1h.8c-.2-.1-.1-.1 0-.1zM12.6 80c.6 1.4 1.3 2.4 2 3.1a30 30 0 0 0 6.9 4.2s.1 0 .1.1c-4.7-3.5-7.4-7.2-8.9-9.8 0 .4 0 .7-.1 1.1V80zM77 85.8c-.4.2-.7.4-1.1.6-.3.2-.7.4-1 .5-.2.1-.4.3-.6.4.6-.2 1.1-.5 1.6-.6.4-.3.8-.6 1.1-.9zm.2-.9c-.9.7-1.9 1.3-3 2 .3-.1.6-.3.8-.4l2.2-1.6zm-63.6.7c.3.4.6.7 1 1-.2-.2-.3-.4-.5-.6-.2-.1-.4-.2-.5-.4zm64.7-.5c-.4.4-.9.7-1.3 1.1 2.2-.9 3.5-1.6 4.5-2.4.6-.5 1.1-1 1.6-1.7-.1 0-.1.1-.2.1-1.5 1-3 2-4.6 2.9zm2.3-2.6c-.3.3-.7.5-1.1.8-.9.8-1.8 1.6-2.8 2.3.8-.4 1.5-.9 2.2-1.4l1.7-1.7zm-67.5 2.3.3.3c-.2-.3-.3-.5-.5-.8.1.2.2.4.2.5zm63.5-2.1c-.1.1-.2.1-.3.2-.6.6-1.3 1.2-1.9 1.8.8-.6 1.5-1.3 2.2-2zm-65.3-2.8v.7c0 1.1.4 2.1 1.2 3.5 0 .1.1.1.1.2-.1-.2-.1-.4-.1-.6 0-.1-.1-.3-.1-.4-.4-1.1-.8-2.2-1.1-3.4zm72.9-.1c-.3.3-.5.6-.8.9-1.1 1.2-2.4 2.3-3.8 3.3 1.1-.6 2.1-1.3 3-2 .2-.2.5-.4.7-.5.4-.5.6-1.1.9-1.7zM15.9 35c-.2 5.7 1.2 12.2 4.4 20.1 1.5 3.6 2.3 5.9 3 7.7.9 2.4 1.5 4.1 3.1 7.3 1.7 3.6 5 7 9.2 9.5 4.7 2.7 10.3 4.2 16.2 4.2 7.1 0 14.5-2.1 21.7-6.2 4-2.4 6.7-5.7 7.9-9.7 2-6.4.3-14.5-4.9-24-6.7-12.2-14-21.7-21.1-27.6-2.7-2.2-5.3-3.9-7.9-5-.5.2-.9.5-1.4.7-2.2 1.2-4.6 2.6-7.1 4.3 1.1-.3 2.2-.4 3.3-.4h.9c2.8.2 5.7 1.2 8.7 3.2 4.9 3.2 10.1 9 15.8 17.5 6.5 9.8 9.7 18.7 9.4 26-.2 3.4-1.1 6.3-2.8 8.7-1.7 2.4-4.1 4.1-7.1 5.3-6.1 2.3-10.9 3.3-15.4 3.3-2.8 0-5.5-.5-8-1.3-4-1.4-7.6-4.1-10.8-7.8-3.5-4.2-6.7-9.9-9.4-17-2.2-5.9-4.3-12.3-3.3-18.3.6-3.6 2.3-6.9 5.1-10-.3.1-.5.2-.8.3-.2.2-.9.8-.9.8-.7.6-1.2 1.1-1.5 1.3-.6.4-1.7 1-2.7 1.4-1.4 1.7-2.6 3.6-3.6 5.7zm65.8 46.7c-.3.4-.7.8-1.1 1.2.9-.7 1.7-1.5 2.4-2.2-.4.3-.8.6-1.3 1zm-70.3-2.5c.2 1.1.5 2.1.9 3v-1c-.3-.7-.6-1.5-.8-2.2 0 0-.1.1-.1.2zm73.3 0c-.3.8-.5 1.4-.8 1.9 1.9-1.5 3.5-3.1 4.8-4.7.3-.7.6-1.4.8-2.2.2-.5.3-1.1.5-1.6-1.2 2.3-3 4.5-5.3 6.6zm-73.1-.8c.2.7.4 1.4.7 2.1V80c-.2-.5-.4-1-.7-1.6v-.1.1zm73.2-.3c-.5.6-1 1.1-1.6 1.7l-.1.1c.6-.5 1.1-1 1.6-1.5 0-.1.1-.2.1-.3zM26 25c-3.1 3.2-4.9 6.6-5.5 10.3-1 5.9 1.1 12.2 3.3 18.1 2.7 7.1 5.8 12.8 9.3 16.9 3.2 3.7 6.8 6.3 10.7 7.8 2.5.9 5.1 1.3 7.9 1.3 4.4 0 9.3-1 15.3-3.3 3-1.1 5.3-2.8 7-5.2 1.7-2.3 2.6-5.2 2.8-8.6.3-7.2-2.9-16.1-9.4-25.8-5.7-8.6-10.8-14.3-15.7-17.5a17.7 17.7 0 0 0-8.5-3.1h-.9c-1.3 0-2.7.2-4 .6-2.5 1.7-4.9 3.4-6.9 5-.6.4-1.1.8-1.7 1.2-1 .9-2.3 1.6-3.7 2.3zM11.8 77.8c.1.2.1.3.2.5.1.4.3.7.4 1.1v-.8c0-.5.1-1 .1-1.5l-.3-.6c0 .2-.1.4-.2.6-.1.2-.1.4-.2.6v.1zM84.5 79l-.3.3c0-.1.1-.2.3-.3zM11 77.1c0 .1 0 .3.1.4.1.4.1.7.2 1.1v-.2c-.1-.5-.2-.9-.3-1.3 0-.1 0-.1 0 0zm74.4-.8c-.2.3-.4.6-.6.8-.2.4-.4.7-.6 1.1l.9-1.2c.1-.2.2-.5.3-.7zm-.1 1.3c0 .1-.1.2-.1.3l.7-.7c.4-.6.8-1.2 1.1-1.8-.6.7-1.1 1.4-1.7 2.2zm5.5-8.7c-.1.4-.3.9-.4 1.3-1 2.6-2.4 4.9-4.4 7.2-.1.2-.2.3-.4.5 2-2 3.5-4.1 4.6-6.3.3-.9.5-1.8.6-2.7zm-79.3 8.9s0-.1 0 0c0-.1 0 0 0 0zm-.2-1.8c.1.4.2.9.4 1.3 0-.1 0-.2.1-.3.1-.4.2-.7.2-1-.2-.3-.3-.7-.5-1-.1.3-.2.7-.2 1zm.9 0c.1.2.2.3.3.5 0-.8.1-1.6.1-2.6-.1.7-.2 1.4-.4 2.1zm73.7-.7-.3 1c1.1-1.5 1.9-3.1 2.5-4.8.8-2.1 1.2-4.3 1.4-6.7-.3.6-.5 1.2-.8 1.8a20.8 20.8 0 0 1-2.8 8.7zm-75.1-.2c0 .4.1.8.1 1.2v-.1c0-.2 0-.4-.1-.6v-.5zm.7-.6c.1.4.3.7.5 1.1.4-1.6.6-3.2.7-5 0-3.2-.2-6.3-.5-9.5-.2-1.4-.3-2.8-.4-4.1-.3-.8-.6-1.5-.9-2.2.1 1.9.3 3.9.6 6 .6 5.5.6 10 0 13.7zm79.1-2.9c-.2.9-.5 1.9-.8 2.7-.1.4-.3.8-.4 1.2 2.2-3.1 3.3-6.5 3.2-10.1-.2 1.4-.6 2.8-1.1 4.1l-.9 2.1zm.7-11.9c-.1 2.3-.4 4.5-.8 6.6l-.6 2.4c-.2.6-.3 1.2-.5 1.7-.6 1.8-1.3 3.4-2.2 5 1.3-1.7 2.2-3.5 2.9-5.4.4-1.1.7-2.3 1-3.5.1-1.3.2-2.7.2-4.2v-2.7c.1.1 0 .1 0 .1zM11 73.8c0 .5.1 1 .1 1.6.1-.3.1-.5.1-.8 0-.3-.1-.6-.2-.8zm78.8-9.7c-.1 2.7-.6 5.2-1.4 7.5-.5 1.2-1 2.4-1.7 3.6 1-1.5 1.8-3 2.4-4.6 0-.1.1-.2.1-.3.2-.6.4-1.1.5-1.7.5-1.9.8-3.9.8-6.2-.2.6-.4 1.2-.7 1.7zm-2.9 3.8c-1 2.2-2.1 4.4-3.3 6.4 1.2-1.6 2.3-3.2 3.2-4.8 0-.5.1-1.1.1-1.6zm-34-59.1c.3.2.7.3 1 .5.9.5 2.2 1.5 3.7 2.8 1.5 1.4 3.3 3.2 5.1 5.1 4.1 4.5 8.3 9.9 11.7 15.2 4.2 6.5 7.4 12.8 9.3 18.5 2.3 6.9 2.8 12.9 1.5 17.9-.5 1.8-1 3.5-1.7 5 1.3-2.2 2.5-4.5 3.5-6.8.1-4.1-.6-8.6-1.9-13.6-.7-2.4-1.5-5-2.5-7.8l-.3-.9c-4.3-11-10.4-20.8-14.7-26.2C64 14 60.1 10.3 55.9 7.7c-1.2.4-2.1.7-3 1.1zm34.9 59.5c-.2 1.8-.6 3.5-1.2 5-.1.2-.2.4-.2.6a24.93 24.93 0 0 0 2-6.6c-.3.4-.4.7-.6 1zM10.5 53.8c-.1 1.6-.2 3.2-.2 4.8v2c0 .3.1.6.1.9.5 4 .6 7.5.4 10.5v.4c.1.5.3 1.1.5 1.6.5-3.6.5-7.9-.1-13.1-.3-2.5-.5-4.7-.6-6.9 0-.1-.1-.1-.1-.2zm76.6 15.7c0 .1 0 .3-.1.4-.1.6-.1 1.2-.2 1.8.3-.9.5-1.8.6-2.8-.1.3-.2.5-.3.6zm4.6-11.2c.3 3 .2 5.7-.3 8.3-.1 1.3-.3 2.6-.5 3.8.1-.3.3-.6.4-1 .6-1.7 1.1-3.5 1.3-5.5 0-.2 0-.3-.1-.5-.2-1.1-.3-2.2-.4-3.3l-.4-2.1v.3zm-81.4 4.8v4.6c.1.7.2 1.5.3 2.4 0-2.1-.1-4.5-.3-7zm77 3.9c0 .6-.1 1.2-.1 1.8l.3-.6c.1-.7.2-1.5.2-2.3-.1.4-.3.8-.4 1.1zM9.8 65.7c.1.7.1 1.4.1 2.1 0 .2.1.5.1.8v-.8c0-.8-.1-1.5-.2-2.1zm78.2-.5c0 .8-.1 1.6-.1 2.4.2-.3.4-.7.5-1 .1-.9.1-1.9.1-2.9-.1.5-.3 1-.5 1.5zM58.9 6.9c3.3 2.7 6.7 6.3 10.1 10.7 5.6 7.3 9.6 17.4 11.1 21.2v.1c.2.5.3.8.5 1.1.8 1.9 1.5 3.8 2.2 5.6 1 2.7 1.9 5.3 2.5 7.8 1.4 4.9 2 9.1 2 12.8.1-.4.3-.7.4-1.1.1-6.6-2-14.9-6.6-26-.1-.3-.3-.7-.5-1.2-5.5-13.9-9.5-19.1-11-21.1-2.1-2.8-5.4-6.9-9.3-10.1-.5 0-.9.1-1.4.2zm29.9 55.9c0 1 0 2-.1 3 .3-.6.5-1.2.8-1.8 0-1.1 0-2.2-.1-3.4-.1.8-.3 1.5-.6 2.2zM8.9 49.4c-.1 1.6-.1 3.2 0 4.9v1.3l.3 4.7c.1.4.2.8.2 1.3.2 1 .3 2.2.5 3.5v-4.6c-.4-4-.7-7.3-.8-10.3 0-.2-.1-.5-.2-.8zm.5 14.5c0 .3.1.7.1 1-.1-.3-.1-.6-.1-1zM60.7 6.6c3.8 3.3 7 7.3 9.1 10 5.6 7.3 9.6 17.4 11.1 21.2.2.5.3.9.5 1.1 4.4 10.8 6.5 18.8 6.6 25.4.2-.5.4-1.1.5-1.6-.2-6.4-2.3-14.3-6.6-24.8-.1-.3-.3-.7-.5-1.2-5.6-13.9-9.6-19.2-11.1-21.2-3-3.9-5.7-6.9-8.5-9.2-.3.1-.7.2-1.1.3zm30 55.1v1.8L91 61c-.1.2-.2.5-.3.7zm-1-1.8c.1 1.2.2 2.4.2 3.5.2-.6.4-1.1.6-1.7 0-1.2-.1-2.5-.3-3.9-.2.7-.3 1.4-.5 2.1zM7.9 56.4c0 .6.1 1.2.1 1.7.1.5.2.9.3 1.5.2 1.1.4 2.2.7 3.3-.1-1.2-.2-2.4-.2-3.5-.1-.5-.2-.8-.3-1 0-.1 0-.2-.1-.2 0-.4-.2-.9-.5-1.8zm84.7 6.2c.1-2.4 0-4.9-.5-7.7 0 .7-.1 1.4-.2 2.2.1.8.6 4.8.7 5.5zM62.3 6.3c2.7 2.3 5.4 5.3 8.3 9.1 5.6 7.3 9.6 17.4 11.1 21.2.2.5.3.9.5 1.2C86.4 48 88.5 55.7 88.8 62l.6-2.1c-.6-6-2.6-13.1-6.4-22.4-.1-.3-.3-.7-.5-1.2-5.5-14-9.6-19.3-11.1-21.2-2.2-2.9-4.8-6.2-8-8.8-.3-.1-.7 0-1.1 0zm28.1 50.6c.2 1.4.3 2.7.4 3.9.1-.4.2-.8.3-1.1.1-1.3.1-2.6 0-3.9-.1-.5-.2-1.1-.3-1.7-.1.9-.3 1.9-.4 2.8zM63.9 6.2c3 2.7 5.6 5.9 7.8 8.7 5.6 7.3 9.6 17.4 11.1 21.2.2.5.3.9.5 1.2 3.6 8.8 5.7 16 6.3 21.8.2-.7.3-1.4.5-2.1-.8-5.5-2.8-12.2-6.2-20.4-.1-.4-.4-.9-.6-1.4-1.6-4.2-5.4-13.9-11-20.9l-.1-.3c-2.2-2.7-4.5-5.6-7.1-7.9-.4 0-.8.1-1.2.1zm-56 49.3c.4 1.2.8 2.1.9 2.5v-3.7c-.1-2.2-.3-3.9-.4-5.2 0-.3-.1-.5-.1-.8-.3-.8-.3-1.5-.3-2.1 0-.1-.1-.2-.1-.3-.2 3-.2 6.2 0 9.6zm1.6-4.4c.1 2.1.3 4.3.5 6.8 0-1.6.1-3.2.3-4.8-.3-.6-.6-1.3-.8-2zm82.1 6.1s0-.1 0 0v-.3.3zM6.8 54.1c.3.7.5 1.5.8 2.5 0-.3 0-.7-.1-1l-.2-.7c-.1-.4-.3-.9-.5-1.5v.7zm4.1-.1c.3.7.6 1.4.9 2.2-.1-1.3-.1-2.5-.1-3.7-.1-2.3 0-4.6.1-6.7-.5 1.8-.8 3.7-1.1 5.6.1.8.1 1.7.2 2.6zM65.6 6.1c2.6 2.3 4.8 5.1 6.9 7.7l.1.1c5.6 7 9.4 16.8 11 21 .2.6.4 1.1.6 1.4 3.2 7.8 5.2 14.3 6.1 19.7.2-1 .3-2 .4-2.9-1-4.9-2.8-10.5-5.6-17.3-.1-.3-.3-.8-.6-1.4-1.6-4.2-5.4-13.9-11-20.9-2.4-3-4.5-5.5-6.9-7.4h-1zm25.9 45.5v2.7c.1.6.2 1.2.2 1.8.1-.9.2-1.8.1-2.6 0-.7-.2-1.3-.3-1.9zm-84.7.9c.3.8.5 1.5.7 2.1-.1-3.4-.1-6.6.2-9.6-.2-.7-.3-1.5-.4-2.1 0-.2-.1-.4-.1-.6-.4 3.1-.5 6.5-.4 10.2zm84.1.7c0 .2.1.3.1.5 0-.3 0-.6-.1-.9v.4zm-85-1.1.3.6c.1.2.2.4.3.7v-.8l-.6-1.8v1.3zm3.6-1.9c.1.2.2.5.2.7.2.6.4 1.1.6 1.7 0-.4.1-.8.1-1.2-.1-3.3 0-6.3.4-9.1-.3-1.5-.2-2.7.2-3.8.1-.4.2-.7.4-1.1-.6.9-1.1 1.7-1.5 2.5-.4 3-.6 6.4-.4 10.3zm75.2-15.8c.2.6.4 1.1.6 1.4 2.6 6.4 4.4 11.7 5.4 16.4v-1.5c0-.1 0-.3-.1-.5-.2-1.3-.4-2.6-.5-3.7-1-3.4-2.4-7.1-4.1-11.3-.2-.4-.4-.9-.6-1.7-1.6-4.2-5.3-14-10.9-20.7-2.3-2.7-4.2-4.9-6.3-6.7-.4 0-.8-.1-1.3-.1 2.3 2 4.4 4.3 6.7 7.3 5.6 7.1 9.5 16.9 11.1 21.1zM91 49.6v1c.1.5.1.9.2 1.4v-1.7c-.1-.2-.1-.4-.2-.7zm-85.1.3c.2.6.4 1.1.6 1.8-.1-3.9.1-7.5.5-10.8-.2-2 0-3.8.4-5.3 0-.1 0-.2.1-.2 0 0-.1 0-.1.1-.3 1.3-.6 2.8-.8 4.3-.4 3-.7 6.4-.7 10.1zM8.7 30a33 33 0 0 0-3.8 1.3c-2.3 1-3.6 2.2-4.1 3.6-.5 1.2-.6 2.7-.3 4.5.2 1.5.8 3.2 1.6 5.1 1 2.4 2.3 4.7 3.3 6.4.1.2.2.4.4.6v-1.7c-.1-.2-.1-.4-.2-.6-.9-2.2-1.4-4.2-1.7-5.8-.2-.9-.3-1.8-.3-2.5 0-.8.1-1.4.3-1.8.5-1.3 1.6-2.5 3.2-3.8.4-1.8 1-3.6 1.6-5.3zm-.4 17.4c0 .3.1.6.1.9 0 .2.1.5.1.7 0 .4.1.8.1 1.3 0-.6 0-1.2.1-1.8-.2-.3-.3-.7-.4-1.1zm2.8-4.3c-.2 2.1-.3 4.2-.3 6.6.2-1.5.6-3 .9-4.5-.2-.5-.4-1.1-.5-1.6-.1-.1-.1-.3-.1-.5zM9 48.6c.1.2.1.4.2.7v-4.1c-.1 1.1-.2 2.3-.2 3.4zM7 35.8a8.84 8.84 0 0 0-2.8 3.5c-.2.4-.3.9-.2 1.7 0 .7.1 1.5.3 2.4.2 1.5.7 3.4 1.3 5.6.1-3.3.3-6.4.7-9.3.2-1.3.5-2.7.7-3.9zm84 12.7c0 .1.1.2.1.4 0-.2 0-.3-.1-.4v-.3.3zM8.2 46.1c.1.5.3 1.1.5 1.7.1-2.4.4-4.7.7-6.9-.3.8-.5 1.6-.7 2.2-.1.2-.1.5-.2.7-.2.8-.3 1.5-.3 2.3zm82.1-.6c.1.4.1.7.2 1.1.1.2.1.5.2.7v-.5c-.1-.3-.3-.8-.4-1.3zm-78.2.8v.4-.4zm.1-.5c.1-.9.3-1.9.4-2.8l-.3 1.2c-.1.5-.1 1-.1 1.5-.1 0 0 0 0 .1zm62.6-37c2.4 2.2 4.7 5 6.8 8.6a68.1 68.1 0 0 1 6.7 17.2c.6 2.9 1.2 5.7 1.7 8.9l.6 1.8c0 .1.1.2.1.3-.1-1.3-.2-2.7-.4-4-.8-4.7-2.4-11.8-5.4-18.6-2.6-5.9-5.7-10.4-9.2-13.4-.3-.4-.6-.6-.9-.8zM8 45.2c.1-.5.1-1 .3-1.5.1-.2.1-.4.2-.7.2-.9.5-1.9 1.1-3.2 0-.1.1-.3.1-.4.3-2.3.8-4.4 1.5-6.4-.5.3-1 .5-1.4.8-.3 1.3-.7 2.6-.9 3.9a70.69 70.69 0 0 0-.9 7.5zm3.2-3c.1.4.2.9.3 1.4l.3 1.1c.1-.2.1-.4.2-.7.3-2.7.8-5.1 1.5-7.5.3-1 .6-2 1-2.9-.8.8-1.4 1.6-2 2.4l-.3 1.1c-.5 1.6-.8 3.4-1 5.1zM68.7 6.3c2 1.7 3.9 3.9 6 6.5 5.7 6.8 9.4 16.6 11 20.8.3.7.5 1.3.6 1.7 1.4 3.4 2.5 6.5 3.5 9.4l-.3-1.6c-.7-2.1-1.3-3.9-1.6-4.9-.1-.2-.2-.6-.4-1.1-1-2.9-3.5-10.5-7.5-17.8-2.7-4.9-5.6-8.7-8.6-11.4l-1.8-1.5c-.3 0-.6-.1-.9-.1zM7.3 40.9c.1.6.1 1.2.2 1.8.1.4.1.8.2 1.2.2-2.2.5-4.3.9-6.3.2-1.3.5-2.5.8-3.7-.4.2-.7.5-1.1.7-.3 1.3-.6 2.7-.8 4.2 0 .8-.1 1.5-.2 2.1zm7.7-7.8c-.5 1.1-.9 2.3-1.2 3.5-.5 1.8-1 3.8-1.3 5.8.2-.7.4-1.3.7-2a36 36 0 0 1 2.6-7.4c0-.3.1-.6.1-.8l-.9.9zm-3.1 3.7-.6 1.8c-.3.7-.3 1.6-.3 2.6.2-1.4.5-2.8.8-4.1.1-.1.1-.2.1-.3zM70.3 6.6c.4.3.9.7 1.3 1.1 3 2.7 6 6.6 8.7 11.5 4.1 7.3 6.6 14.9 7.5 17.8.2.5.3.8.4 1 .2.5.5 1.3.8 2.2-.3-1.3-.7-2.7-1-4.2-.8-2.2-2-5.5-3.2-8.5-1.5-4-2.5-6.5-3-7.3v-.1c-1.7-3.3-3.7-6.2-5.8-8.7-1.7-2-3.5-3.6-5.3-4.8h-.4zM7.9 35.1c-.1.2-.1.4-.2.6-.3 1.1-.5 2.3-.5 3.7 0-.2.1-.4.1-.5.2-1.4.4-2.7.7-3.9l-.1.1zm3.7-2.3c-.6 1.9-1.2 4-1.6 6.2.3-.6.7-1.2 1.2-1.8.2-.2.3-.5.5-.7.6-1.6 1.2-3.1 1.7-4.6-.2.1-.4.2-.5.3-.4.1-.9.4-1.3.6zM71.4 6.9c1.6 1.2 3.2 2.6 4.7 4.4 2.2 2.5 4.2 5.4 5.9 8.8v.1c.4.8 1.4 3.3 3 7.4 1.5 3.9 2.9 7.8 3.2 8.5.2.9.4 1.7.6 2.5-.3-1.3-.5-2.6-.8-3.9 0-.1-2-8.9-6.7-17.1-2.7-4.6-5.7-8.1-9-10.3-.3-.2-.6-.3-.9-.4zm-55.7 27c-.6 1.3-1.1 2.7-1.5 4.1.5-1.1.9-2.1 1.5-3.1-.1-.3-.1-.7 0-1zM56 7.7c4.2 2.7 8.1 6.3 11.6 10.8 4.1 5.1 8.2 11.9 11.6 18.9-5.2-12.7-9-17.6-10.4-19.5-3.5-4.5-6.9-8.2-10.3-10.9-.8.2-1.7.4-2.5.7zm18.6.6c.4.3.8.6 1.2 1 3.6 3 6.7 7.6 9.3 13.5 1.7 3.8 3.1 8.3 4.2 13-.7-3.9-1.7-7.6-2.9-10.9-1.4-4-3.1-7.4-5.1-10.1-1.9-2.9-4.2-5.1-6.7-6.5zM14 31.6c-.5 1.2-1 2.5-1.4 3.8.6-.8 1.3-1.6 2.1-2.4.3-.7.6-1.5 1-2.2-.6.3-1.2.5-1.7.8zM9 30c-.6 1.6-1.1 3.3-1.5 5.1l.1-.1c.4-1.2.9-2.5 1.5-3.9.1-.4.3-.9.5-1.3-.2 0-.4.1-.6.2zm-.6 3.7c-.1.3-.2.6-.3 1l.1-.1c0-.3.1-.6.2-.9zm1.7-4.1c-.3.5-.5 1-.7 1.5-.3 1-.7 2.1-.9 3.2.3-.2.7-.5 1.1-.7.4-1.5.9-2.9 1.4-4.2-.3.1-.6.2-.9.2zm5.9 3.5c0 .4-.1.8-.1 1.1.9-1.7 1.9-3.4 3-4.9l-.1.1c-.6.5-1.2 1.1-1.7 1.6-.4.7-.7 1.4-1.1 2.1zm-4.7-3.8c-.5 1.3-1 2.7-1.4 4.1.4-.3.9-.5 1.4-.8.2-.5.4-1 .6-1.6.3-.7.5-1.4.8-2.1h-.1c-.4.2-.8.3-1.3.4zm1.9-.4c-.4.8-.7 1.5-1.1 2.3-.1.4-.3.8-.4 1.2.3-.2.7-.4 1.1-.6.3-.1.5-.3.8-.4.4-1 .8-2 1.3-3-.3.1-1.7.5-1.7.5zm2.9 1.7c-.3.6-.6 1.2-.8 1.8.2-.2.4-.4.6-.7.1-.3.2-.7.2-1.1zm.1 1.3c0 .1 0 .2-.1.4l.3-.6-.2.2zm.3-1.5c0 .1 0 .2-.1.3 0 .2-.1.5-.1.7l.6-.6c.1-.2.3-.5.4-.7-.3.1-.5.2-.8.3zm-.8-2.1c-.5.9-1 1.9-1.5 2.9.5-.3 1.1-.5 1.7-.8.2-.3.3-.6.5-1 .1-.5.3-1 .4-1.4-.3.1-.7.2-1.1.3zm2.1 1.6c-.1.1-.1.2-.2.3l.4-.4-.2.1zm-1.1-.4c-.1.2-.1.4-.1.6.3-.2.7-.3 1-.5.5-.8.9-1.5 1.5-2.2-.4.1-.8.2-1.3.3-.4.6-.8 1.2-1.1 1.8zM36.2 2.4C27.5 5.4 21 13 13.6 21.8c-1.8 2.1-3.3 4.8-4.5 7.8.2-.1.4-.1.6-.2 1.2-3.1 2.9-5.8 4.8-8l2.1-3c3.9-5.1 8.2-9.1 12.6-11.9 2.5-1.7 4.7-3.1 7-4.1zM19.4 27.3c-.5.7-1 1.4-1.4 2.1l.6-.3c.4-.3.8-.7 1.2-1l.9-1.2c-.4.1-.8.3-1.3.4zM34.5 4.4c-1.7.6-3.3 1.5-5 2.5-4 3.1-7.7 7.2-12 11.9l-.1.1c-.8.8-1.6 1.7-2.4 2.6l-.2.2a59.5 59.5 0 0 0-4.5 7.7c.3-.1.5-.1.8-.2 1.5-3.5 3.4-6.4 5.7-8.7l2-2c4.8-4.8 8.9-8.9 13.1-12.1.9-.8 1.7-1.4 2.6-2zM24 13.7c-1.6 1.5-3.2 3.2-4.9 4.9l-2 2c-2.2 2.2-4.1 5-5.5 8.4l1.1-.3.3-.1c1.6-3.8 3.7-6.9 6.1-9.3.8-.8 1.5-1.5 2.2-2.1.8-1.3 1.7-2.5 2.7-3.5zm-8.7 14.7c-.1.2-.1.3-.2.5 0-.2.1-.4.2-.5zm4.7-.1c-.1.1-.2.2-.2.3 1.1-.5 1.8-.9 2.2-1.2.3-.2.8-.7 1.5-1.3l.3-.3c-.5.2-1.1.4-1.7.6-.7.7-1.4 1.3-2.1 1.9zm-1.5-6.9c-2.1 2.3-3.8 4.6-5.1 7.1l.6-.1 1.1-.3c1.1-2.4 2.2-4.7 3.4-6.7zm-1.3 6.5c-.1.2-.1.3-.2.5.1-.2.2-.3.3-.5h-.1zm2.2-7.4c-1.4 2.3-2.7 4.8-4 7.6h.1c1.2-2 2.6-4 4.3-5.9 2.2-3.3 5.5-6.4 9.6-9 3.8-3.2 7.2-5.7 10.3-7.5-.9 0-1.8.1-2.7.3-5.8 3.5-11.7 8.9-16.7 13.6l-.9.9zm-.7 3.3c-1.1 1.3-2 2.7-2.8 4.1l1.1-.3c.4-1.3 1-2.5 1.7-3.8zm-5.8.2c-.8 1.1-1.4 2.3-2.1 3.6l2.1-3.6zm22-13.6c-.8.3-1.6.7-2.4 1.1-1 .6-2 1.2-2.9 1.8-2 1.7-4.2 3.7-6.7 6-1 1-2 2-2.9 3-1.1 1.7-2 3.4-2.7 5.3.1 0 .2 0 .3-.1 1.9-3 4.3-5.9 7.3-8.7 3.5-3.3 6.8-6.1 10-8.4zm.9-.3A97 97 0 0 0 25 19c-2.9 2.7-5.2 5.5-7.1 8.4.5-.1.9-.2 1.3-.4 1.2-1.7 2.6-3.3 4.1-4.7l.1-.1c5.2-5 9.8-9.2 14.7-12.6-.6.1-1.5.3-2.3.5zM21.2 26.8c-.1.1-.2.3-.3.4.2-.2.4-.3.6-.5-.2 0-.2.1-.3.1zM38.9 9.5c-5.1 3.4-9.8 7.8-15.2 12.9l-.1.1c-1.4 1.3-2.7 2.8-3.9 4.4.5-.1.9-.3 1.3-.4 2.8-3.5 6.1-6.6 9.8-9.4 3.6-2.7 7.4-5.5 10.6-7.6-.4 0-.9-.1-1.3-.1-.4.1-.8.1-1.2.1zm-18.6 9-1.1 1.1c-1.9 1.9-3.6 4.3-5.1 7.1 1.4-2.2 3-4.3 5-6.4l1.2-1.8zm21.6-8.9c-3.3 2.1-7.2 5-10.9 7.8-3.6 2.7-6.8 5.7-9.5 9.1h.2c.1 0 .2-.1.3-.1 1.2-1 2.6-2.2 4-3.3 7.8-6.2 13.5-10.4 17.8-13.1-.7-.3-1.3-.4-1.9-.4zm2.2.4c-4.3 2.7-10 6.9-18 13.2-1.2 1-2.4 1.9-3.5 2.8.6-.2 1.2-.4 1.7-.6.5-.4 1.2-1 1.9-1.7 3.1-2.6 6-4.9 8.9-7 3.5-2.5 7-4.6 10.3-6.4-.3-.1-.8-.2-1.3-.3zm1.8.5c-3.4 1.7-7 3.9-10.6 6.5-2.9 2.1-5.8 4.3-8.9 7-.4.4-.8.7-1.3 1.1l.6-.3c2.1-2.2 5-4.4 8.4-6.5 1.4-.8 2.7-1.5 4.1-1.9 2.8-1.9 5.3-3.4 7.8-4.8l1.2-.6c-.4-.2-.8-.4-1.3-.5zM37.4 17c-1 .4-2.1.9-3.1 1.5-3.1 1.9-5.7 3.9-7.8 5.9 1.1-.6 2.2-1.2 3.1-1.8.5-.4 1.1-.8 1.7-1.2 1.8-1.4 3.9-2.9 6.1-4.4zm-10-2.2c-2.3 1.7-4.2 3.5-5.8 5.4l1.1-1.1c1.7-1.6 3.2-3 4.7-4.3zm0-6.5c-3.7 2.6-7.2 6.1-10.4 10.4-.3.4-.6.8-1 1.3.4-.5.8-.9 1.3-1.4 3.6-4 6.8-7.4 10.1-10.3zm5.2-.9c-3.8 2.9-7.6 6.5-11.2 10.1-.5.7-.9 1.3-1.4 2.1l.2-.2c4.8-4.6 10.5-9.8 16-13.3-.5.1-1.1.3-1.6.4-.6.3-1.3.5-2 .9zm-1.3.6c-3.1 1.7-6.1 4.4-8.9 8 3.7-3.6 6.4-6 8.9-8zm9-2.4a67.6 67.6 0 0 0-9.2 6.4c.4-.2.8-.5 1.2-.7 1.1-.6 2.2-1.1 3.4-1.4 2.4-1.6 4.7-3 7-4.1-.7-.1-1.5-.1-2.2-.1-.1-.1-.1-.1-.2-.1zm6 4.7c.4.2.9.3 1.3.5 1.6-.8 3.1-1.5 4.6-2.1L51 8.1c-1.5.7-3.1 1.4-4.7 2.2zm-1.8-.5c.5.1 1 .3 1.4.4 1.6-.8 3.2-1.6 4.8-2.2-.6-.3-1.2-.5-1.8-.7-.1 0-.2.1-.3.1-1.3.6-2.6 1.4-4.1 2.4zm-2.2-.5 1.8.3c1.6-1 3.1-1.8 4.4-2.5h.1c-.6-.2-1.1-.3-1.6-.5-1.5.7-3 1.6-4.7 2.7zm.9-3.5c-2.2 1-4.4 2.3-6.7 3.8.8-.2 1.5-.3 2.3-.4 2-1.3 3.8-2.4 5.8-3.2-.5-.1-.9-.2-1.4-.2zM35.6 4a46.81 46.81 0 0 0-7.2 5.5A25 25 0 0 1 32.5 7c.6-.4 1.1-.8 1.7-1.2 1.4-1 2.7-1.8 4-2.5-1 .3-1.8.5-2.6.7zm4.6 5.2c.6 0 1.1 0 1.7.1 1.7-1.1 3.3-2 4.7-2.8-.5-.1-1-.3-1.5-.4-2 .9-3.8 1.9-5.7 3.1h.8zM51.4 8l1.2.6c.9-.4 1.9-.7 2.8-1-.4-.2-.8-.4-1.1-.6-1 .3-1.9.6-2.9 1zm-2.1-.9c.6.2 1.2.5 1.8.7 1-.4 2-.8 2.9-1.1-.6-.3-1.1-.6-1.7-.9-1 .4-2 .8-3 1.3zm5.3-.2c.3.2.7.4 1.1.6.9-.3 1.7-.5 2.6-.7-.1-.1-.2-.2-.4-.3-.2-.1-.4-.3-.5-.4-.9.2-1.9.5-2.8.8zm-7.3-.5c.5.2 1 .3 1.6.5 1-.5 2-.9 3-1.2-.5-.2-1-.4-1.4-.6-.8.3-1.5.6-2.2.9-.3.1-.6.3-1 .4zM57.7 6c.1.1.2.2.4.3.2.1.4.3.5.4l1.4-.3c-.3-.2-.5-.5-.8-.7l-.1-.1c-.5.2-.9.3-1.4.4zm-5.1-.2c.6.3 1.1.6 1.7.9.9-.3 1.9-.6 2.8-.8L55.9 5c-1.2.2-2.3.4-3.3.8zM38.9 3.3c-1.5.8-3 1.7-4.6 2.8-.2.2-.5.4-.7.5.4-.1.7-.3 1.1-.4.8-.3 1.6-.5 2.4-.6 1.6-1 3.2-1.8 4.7-2.5h-.4c-.9.1-1.7.1-2.5.2zm31.9 3.1s-.1 0 0 0c-.1 0-.1 0 0 0-.1 0 0 0 0 0zm-11.3-.8c.3.2.6.5.9.7.4-.1.9-.1 1.3-.2-.3-.3-.6-.5-1-.8l-1.2.3zm-14 .3c.5.1 1 .3 1.5.4l1.2-.6c.7-.3 1.3-.6 1.9-.8-.3-.1-.7-.3-1-.4-1.2.5-2.4.9-3.6 1.4zm24.2.3h.2c-.2-.1-.3-.2-.5-.3h-.1c.2 0 .3.2.4.3zm-8.6-.9c.3.3.6.5 1 .8.3-.1.7-.1 1.1-.1-.3-.3-.7-.5-1-.8-.3 0-.5.1-.8.1h-.3zm7.2.6c.3.1.5.1.8.1-.2-.2-.4-.3-.7-.4-.3-.1-.5-.1-.8-.2.3.2.5.4.7.5zm-5.7-.8c.3.3.7.5 1 .8.4 0 .9-.1 1.3-.1-.3-.3-.7-.5-1-.8-.5.1-.9.1-1.3.1zm4 .7h1.2c-.3-.2-.5-.4-.8-.6-.4-.1-.9-.1-1.4-.2.4.3.7.6 1 .8zM64.3 5c.3.2.6.5.9.8h.9c-.3-.3-.7-.5-1-.7-.2 0-.5 0-.8-.1zm-20.6.6c.4.1.9.2 1.4.2 1.2-.5 2.4-1 3.6-1.4-.4-.1-.8-.3-1.2-.4-1.3.5-2.6 1-3.8 1.6zm12.5-.7c.4.3.8.6 1.2.8l1.4-.3c-.3-.3-.7-.5-1-.8-.6.2-1.1.2-1.6.3zm-5.3.1c.5.2.9.4 1.4.6 1-.3 2.1-.6 3.2-.8-.4-.3-.8-.5-1.2-.7-1.1.2-2.3.5-3.4.9zM40.4 1.3c-.3 0-.5.1-.8.1-2.8.8-5.6 2.1-8.3 4.1 1.4-.7 2.8-1.3 4.2-1.8h.1c1.6-1 3.2-1.8 4.8-2.4zm1.9 1.9c-1.5.6-3 1.4-4.6 2.3.8-.1 1.7-.2 2.5-.2 1.4-.8 2.7-1.4 4.1-1.9-.7-.1-1.3-.2-2-.2zm-1.5 2.1c.8 0 1.6.1 2.3.2 1.3-.6 2.6-1.1 3.8-1.6-.7-.2-1.4-.3-2.1-.5-1.3.6-2.6 1.2-4 1.9zm17.4-.7 1 .7c.4-.1.8-.2 1.2-.2 0 0-.1-.1-.2-.1-.3-.2-.5-.4-.8-.5-.4 0-.8.1-1.2.1zm8.9.4c.2 0 .4.1.5.1-.2-.1-.5-.3-.7-.4-.1 0-.2-.1-.4-.1.3.2.5.3.6.4zm-7.2-.6c.2.1.3.2.5.4.1.1.2.2.4.3.2-.1.4-.1.6-.1.2 0 .3 0 .5-.1l-.9-.6h-.4c-.2.1-.5.1-.7.1zm5.4.4c.4 0 .8.1 1.3.1-.2-.2-.5-.3-.7-.5-.4-.1-.9-.1-1.3-.2.1.2.4.4.7.6zm-3.9-.6c.3.2.6.4.8.6.4 0 .8-.1 1.2-.1-.3-.2-.6-.4-.8-.6-.4.1-.8.1-1.2.1zm-11.8.2c.3.1.6.2.9.4 1.2-.4 2.3-.7 3.5-1-.2-.1-.4-.2-.5-.3-1.4.3-2.7.6-3.9.9zm14.6.4h.6l-.9-.6h-.7c.3.2.5.4.8.6h.2zM54.8 4c.4.2.8.5 1.1.7.5-.1 1-.2 1.6-.2-.4-.2-.7-.5-1.1-.7-.6 0-1.1.1-1.6.2zm2-.3 1 .7c.4-.1.9-.1 1.3-.2l-.9-.6c-.5 0-.9.1-1.4.1zm-8.9.2c.4.1.8.2 1.2.4 1.3-.4 2.6-.7 3.9-1-.3-.2-.7-.3-1-.5-1.3.3-2.7.6-4.1 1.1zm10.8-.3.9.6c.3 0 .7-.1 1-.1h.1c-.2-.2-.5-.3-.7-.5h-1.3zm5.3.3c.4 0 .7.1 1.1.1l-1.4-.3c.1.1.2.2.3.2zm-3.6-.3c.2.1.4.3.6.4.4 0 .8-.1 1.2-.1-.2-.1-.3-.2-.5-.3h-1.3zm2.4.3h.5c-.1-.1-.3-.1-.4-.2h-.6c.2 0 .3.1.5.2zm-17.4-.6c.7.1 1.4.3 2.1.5 1.4-.5 2.8-.8 4.2-1.1-.5-.2-1-.4-1.6-.6-1.6.2-3.2.6-4.7 1.2zm8.5.2c.2.1.3.2.5.3.5-.1 1.1-.2 1.6-.2-.2-.1-.3-.2-.5-.3-.5 0-1.1.1-1.6.2zm9.1-.1c.3 0 .7.1 1.1.1-.1 0-.1 0-.2-.1l-1.4-.3c.2.2.4.2.5.3zM44.3 1h-.5c-.6 0-1.3.1-1.9.1-1.7.5-3.5 1.3-5.3 2.3.7-.2 1.5-.3 2.3-.4 1.8-.9 3.5-1.6 5.4-2zM56 3.2c.2.1.3.2.5.3.4 0 .9-.1 1.3-.1-.2-.1-.3-.2-.5-.3-.5 0-.9 0-1.3.1zm5.9.1h.5c-.2-.1-.5-.2-.7-.3h-.3c0 .1.3.2.5.3zM57.7 3c.2.1.3.2.5.3h1.2l-.6-.3h-1.1zm2.3.3h1.3c-.2-.1-.5-.3-.7-.4h-1.2c.2.2.4.3.6.4zm-7.5-.6c.3.2.7.3 1 .5.5-.1 1-.1 1.6-.2-.3-.2-.7-.3-1-.5-.5.1-1.1.1-1.6.2zm-9.6.2c.6 0 1.3.1 1.9.2 1.6-.6 3.1-1 4.7-1.4-.5-.2-1-.3-1.5-.4-1.6.4-3.4.9-5.1 1.6zM45.4 1c-1.9.4-3.8 1-5.7 1.9.5 0 1.1-.1 1.6-.1h1c1.7-.7 3.4-1.3 5.1-1.6-.7-.1-1.4-.1-2-.2zm9.2 1.4c.3.2.6.3.9.5.4 0 .8-.1 1.3-.1-.3-.2-.6-.3-1-.5-.4 0-.8.1-1.2.1zm7 .4h.2c-.1 0-.3-.1-.4-.1.1 0 .2 0 .2.1zm-5.2-.5c.3.2.6.3.9.5.3 0 .7 0 1-.1-.3-.2-.6-.3-.9-.5h-.6c-.2.1-.3.1-.4.1zm1.7 0c.3.1.6.3.8.4h1c-.3-.1-.5-.2-.8-.3-.3-.1-.7-.1-1-.1zm2.6.4c-.1 0-.1-.1-.2-.1 0 0 .1 0 .2.1zm-10.1-.8 1.5.6 1.6-.3c-.5-.2-.9-.4-1.4-.6l-1.7.3zm2.3-.3 1.2.6c.4 0 .8-.1 1.2-.1-.4-.2-.8-.3-1.1-.5h-1.3zm2.1 0c.3.1.6.3 1 .4h.8l-.9-.3c-.3-.1-.6-.1-.9-.1zm2.6.4h.7c-.4-.1-.9-.2-1.3-.2.2.1.3.1.5.2h.1zm-8.9-.7c.4.1.9.3 1.3.4.5-.1 1.1-.2 1.6-.2-.4-.1-.9-.3-1.3-.4-.5 0-1 .1-1.6.2zm2.5-.3c.4.1.7.2 1.1.4.4 0 .8-.1 1.2-.1l-1-.3h-1.3zm4.9.4c-.1 0-.2 0-.3-.1 0 0 .1 0 .1.1h.2zm-1.6-.1h.4c-.3-.1-.6-.2-1-.3h-.4c.3.1.5.2.8.3h.2zM46.4.8l1.6.3c.5-.1 1-.2 1.5-.2-.5-.1-1-.2-1.6-.3-.4.1-1 .1-1.5.2zm3-.2c.3.1.7.1 1 .2.3 0 .7-.1 1-.1-.2 0-.4-.1-.6-.1h-1.4zm-5 .1h1c.4-.1.7-.1 1.1-.2h-1c-.7 0-1.4.1-2 .2h-.1 1zm2.7-.4c.3 0 .6 0 .9.1h.6-1.2c0-.1-.1-.1-.3-.1zm5.8 75a21.2 21.2 0 0 1-15.1-6c-3.2-2.9-5.9-6.9-8.2-11.9-1.4-3.2-3.1-6.9-4.2-10.5a28 28 0 0 1-1.4-9.3c.4-6.3 4.2-11.2 12-15.3 2.2-1.2 4.4-1.7 6.6-1.7 2.7 0 5.4.9 8.1 2.6 4.2 2.7 8.5 7.4 13.3 14.6 5.9 8.8 8.9 16.2 9 22 0 2.9-.7 5.4-2.1 7.6-1.4 2.1-3.6 3.9-6.4 5.3-2.6 1.1-6.7 2.6-11.6 2.6zM42.7 20.7c-2.1 0-4.3.6-6.5 1.7-7.7 4-11.4 8.8-11.8 15.1-.4 5.5 1.9 11.9 5.5 19.7 4.3 9.4 10.1 15.1 17.4 17.1 1.8.5 3.7.7 5.6.7 4.8 0 9-1.5 11.6-2.8 2.8-1.4 4.9-3.1 6.3-5.2 1.4-2.1 2.1-4.6 2-7.4-.1-5.7-3.1-13-8.9-21.8-4.7-7.1-9.1-11.9-13.2-14.5-2.7-1.7-5.4-2.6-8-2.6zM53 70.9c-1.4 0-2.8-.2-4.1-.5-2.6-.6-5.2-1.9-7.5-3.7-2.6-2-4.9-4.8-7-8.2-4.2-7-6.3-13.7-6-19.1.1-3 1-5.6 2.5-7.8 1.6-2.3 4-4.1 7.1-5.4 1.7-.7 3.4-1.1 5.1-1.1 2.6 0 5.2.9 7.7 2.6 3.7 2.5 7.4 6.9 11.1 13.4 3.9 6.7 5.9 11.8 6.3 16 .2 2.5-.2 4.7-1.1 6.5-1 2-2.8 3.7-5.2 5.1-2.7 1.4-5.8 2.2-8.9 2.2zm-9.9-45.4c-1.6 0-3.3.3-5 1-3.1 1.2-5.4 3-7 5.3-1.5 2.1-2.3 4.7-2.4 7.6-.2 5.4 1.8 12 6 19 2 3.4 4.3 6.1 6.9 8.2a18.87 18.87 0 0 0 11.5 4.1c3 0 6.1-.8 8.7-2.2 2.4-1.3 4.1-3 5.1-4.9.9-1.8 1.3-3.9 1.1-6.4-.4-4.1-2.3-9.2-6.2-15.8C58 34.8 54.4 30.5 50.7 28c-2.5-1.7-5-2.5-7.6-2.5zm9.6 40.6c-.9 0-1.7-.1-2.5-.2-2.2-.4-4.3-1.3-6.2-2.7-2.3-1.6-4.4-3.9-6.3-6.7-3.4-5.1-5.2-10.6-5.1-15.3.1-4.9 2.3-8.6 6.1-10.4 1.5-.7 3.1-1.1 4.6-1.1 2 0 4 .6 6 1.8 3.3 2 6.5 5.6 9.4 10.7 2.7 4.6 4.2 9.3 4.4 13.3.2 4.1-1.1 7.2-3.7 8.8-.8.6-3.2 1.8-6.7 1.8zM43.3 30c-1.5 0-3 .4-4.5 1.1-3.7 1.7-5.8 5.3-6 10.1-.1 4.7 1.7 10.1 5.1 15.2 3.5 5.3 7.7 8.4 12.3 9.3.8.2 1.7.2 2.5.2 3.4 0 5.8-1.2 6.6-1.7 2.5-1.5 3.7-4.5 3.6-8.5-.2-4-1.7-8.6-4.4-13.2-2.9-5.1-6.1-8.6-9.3-10.6-2-1.3-4-1.9-5.9-1.9zm8.1 31.4c-.7 0-1.5-.1-2.2-.3-3.3-.8-6.3-3.3-9-7.4-2.5-3.7-3.7-7.9-3.4-11.7.3-3.3 1.7-6 3.7-7.1 1-.5 2.1-.8 3.2-.8 1.4 0 2.9.4 4.4 1.2 2.7 1.4 5.2 4 7.1 7.3 2 3.5 3.2 7.1 3.4 10.3.2 3.4-.7 5.8-2.7 7.1-.7.6-2.4 1.4-4.5 1.4zm-7.7-26.8c-1.1 0-2.1.2-3.1.7-2 1-3.3 3.6-3.6 6.9-.3 3.7.9 7.8 3.3 11.5 2.7 4 5.7 6.5 8.9 7.2.7.2 1.4.3 2.1.3 2.1 0 3.7-.8 4.4-1.2 1.9-1.2 2.8-3.5 2.6-6.8-.2-3.1-1.4-6.7-3.4-10.2-1.9-3.3-4.4-5.9-7-7.2a7.5 7.5 0 0 0-4.2-1.2zM50 56.3h-.3c-.5 0-1-.1-1.5-.3-.7-.2-1.4-.6-2-1.1-1.2-.9-2.4-2.1-3.5-3.7-1.6-2.3-2.3-5-2-7.4.2-2.1 1.1-3.8 2.3-4.4.6-.3 1.3-.5 2-.5.9 0 1.8.3 2.8.8 1.6.9 3.2 2.5 4.4 4.6v.1c1.2 2.1 2 4.6 2.1 6.7.1 2.2-.5 3.8-1.6 4.5-.8.4-1.8.7-2.7.7zm-5.2-17c-.6 0-1.2.1-1.7.4-.8.5-1.8 2-2.1 4.1-.2 1.7 0 4.3 1.9 7.1 1.1 1.7 2.3 3 3.5 3.8.7.5 1.4.9 2.2 1.1.4.1.8.2 1.2.2h.1c.9 0 1.8-.2 2.6-.7 1-.7 1.6-2.3 1.5-4.3-.1-2.1-.8-4.4-2-6.5v-.1c-1.2-2-2.7-3.6-4.4-4.5-1-.4-1.9-.6-2.8-.6z" class="st0"/><linearGradient id="SVGID_2_" x1="5.28" x2="84.89" y1="-776.09" y2="-854.98" gradientTransform="matrix(1 0 0 -1 0 -762.88)" gradientUnits="userSpaceOnUse"><stop offset="0" style="stop-color:#2D78F6"/><stop offset=".26" style="stop-color:#6A26D6"/><stop offset=".76" style="stop-color:#EB3323"/><stop offset=".96" style="stop-color:#F7CB45"/></linearGradient><path d="M34.9 4.2c-1 .6-1.9 1.3-2.9 2.1-4.2 3.2-8.4 7.4-13.1 12.1l-2 2c-2.3 2.3-4.2 5.3-5.7 8.7-.3.1-.6.2-1 .2a73 73 0 0 1 4.5-7.8l.2-.2c.8-.9 1.7-1.8 2.5-2.7 4.3-4.6 8-8.7 12-11.9 1.8-.9 3.6-1.8 5.5-2.5zM17.3 18.6c-.6.6-1.2 1.3-1.8 2l1.4-2c3.1-4.1 6.9-8.1 11.3-11-3.6 3.1-7.1 6.8-10.9 11zm-.6-.1c3.5-4.5 7.7-8.9 12.6-11.8 2.6-2 5.2-3.6 8.1-4.7-9.2 2.7-15.8 10.3-23.9 19.8-1.9 2.2-3.4 4.9-4.5 7.9.2-.1.5-.1.8-.2 1.2-3.1 2.8-5.8 4.8-8l2.1-3zM8.8 29.8c1.2-3.1 2.7-5.9 4.6-8.1C22.1 11.4 29.1 3.3 39.5 1.3c1.3-.4 2.6-.6 3.9-.8 1.1-.2 2.1-.4 3.3-.4 1.4-.1 2.8 0 4.1.3 1.1 0 2.2.2 3.2.4 1.6.1 3 .5 4.4.9.5.1 1 .2 1.5.4 1.5.2 2.9.6 4.1 1.1.9.3 1.8.6 2.6 1 .3.1.5.2.8.3 1.7.5 3.2 1.2 4.6 2.1l.6.3c6.7 2.7 11.2 9.8 14 17.7 2 5.5 3.2 11.5 3.8 16.7.4 2.6.7 5 .9 7 .4 1.7.7 3.3.8 4.6v.3c.8 3.9 1 7.4.6 10.5.5 4.9-1 9-3.8 12.6-1.4 3.1-3.4 6-6.4 8.4-2.9 2.3-6.6 4.2-11.5 5.4-2.2 1.4-4.5 2.7-7.1 4.1-11.7 6.3-25.1 6.4-36 4.2-5.5-1.1-10.3-2.8-14-4.5-1.9-.9-3.4-1.8-4.7-2.6-1.2-.9-2.1-1.7-2.6-2.4-.9-1.4-1.3-2.5-1.3-3.6 0-.9.2-1.8.5-3 .1-.2.1-.4.2-.6.8-2.9 1.7-7.4.6-16.8-.5-4.5-.8-8.9-.9-13-.2-.3-.4-.7-.6-1.1-1-1.7-2.2-4-3.3-6.5-.7-1.7-1.3-3.5-1.6-5.1-.3-1.7-.2-3.3.3-4.6.5-1.6 2.1-2.8 4.2-3.7 1.3-.3 2.6-.7 4.1-1.1zm-3.1 22c-.1-.3-.3-.5-.5-.8-1-1.7-2.2-4-3.3-6.4-.7-1.7-1.3-3.4-1.6-5.1C0 37.9.1 36.3.6 35c.5-1.5 2-2.7 4.1-3.6 1.3-.6 2.6-1 4-1.4-.6 1.7-1.1 3.5-1.6 5.4a9.47 9.47 0 0 0-3.2 3.8c-.2.5-.3 1.1-.3 1.8s.1 1.6.3 2.5c.3 1.8.9 3.9 1.5 5.9.1.2.1.4.2.6.1.5.1 1.2.1 1.8zm.2.7c.1 4 .4 8.3.9 12.6 1.1 9.4.1 13.9-.7 16.9 0 .2-.1.4-.1.6-.3 1.2-.5 2-.5 2.9 0 1 .3 2.1 1.3 3.5.5.7 1.3 1.5 2.6 2.4 1.2.9 2.8 1.7 4.6 2.6 3.7 1.7 8.5 3.4 14 4.5 10.9 2.2 24.2 2.1 35.9-4.2 2.4-1.3 4.6-2.6 6.7-3.8-.6.2-1.3.3-1.9.4-1.3.8-2.7 1.6-4.2 2.3-11.7 6.3-25 6.5-35.8 4.3-5.4-1.1-10.2-2.7-13.9-4.5-1.8-.9-3.4-1.8-4.6-2.6-1.2-.9-2.1-1.7-2.6-2.4-.9-1.4-1.3-2.5-1.3-3.6 0-.9.2-1.8.5-3 .1-.2.1-.4.2-.6.8-2.9 1.7-7.4.6-16.8-.4-3.4-.7-6.8-.8-10-.2-.5-.4-.9-.6-1.4-.2.1-.3 0-.3-.1zM71.5 90c4.6-1.2 8.2-3 10.9-5.2 2.8-2.2 4.7-4.9 6.1-7.7-1.4 1.7-3.1 3.2-4.9 4.6-.5.9-1.2 1.7-2 2.3-1.2.9-2.7 1.7-4.9 2.6-.2.1-.4.2-.6.2-1.4 1.1-3 2.2-4.6 3.2zm3.9-2.9c-1.4 1-2.9 2-4.5 3.1-.6.2-1.3.3-1.9.4 1.5-.9 2.9-1.8 4.3-2.6.7-.3 1.5-.6 2.1-.9zm1.2-.7c2.2-.9 3.7-1.7 4.8-2.6.7-.6 1.3-1.2 1.8-1.9-.1.1-.3.2-.4.3-1.4 1-2.9 2-4.5 2.8-.6.5-1.1 1-1.7 1.4zm.9-.9L76 86.7c-.6.3-1.3.5-2 .8l1-.7c.3-.2.7-.3 1-.5.5-.3 1-.5 1.5-.8zm1.4-1 .1-.1c1.6-1.2 3.1-2.4 4.4-3.8.4-.4.7-.8 1-1.1-.3.8-.6 1.5-1 2.1-.2.2-.5.4-.7.5-1.2.8-2.5 1.6-3.8 2.4zm1.1-1.1c.6-.6 1.1-1.2 1.7-1.8.7-.5 1.3-1.1 2-1.6-.1.2-.3.3-.4.5-1.1 1-2.1 2-3.3 2.9zm1-1.2c-.6.7-1.3 1.4-2.1 2.1-.9.6-1.9 1.2-2.9 1.8 1.3-.9 2.4-1.9 3.5-2.8.5-.4 1-.8 1.5-1.1zm1.2-1.2c.8-.6 1.6-1.3 2.3-1.9l.1-.1c0-.1 0-.1.1-.2L82.2 81zm-.7.5zm1.3-1.3c.7-.6 1.4-1.2 2-1.9.1-.2.1-.3.2-.5-.5.6-1.1 1.2-1.8 1.8-.2.3-.3.5-.4.6zm-.5.4c-.1.1-.1.2-.2.2-.2.1-.3.3-.5.4.3-.2.5-.4.7-.6zm1.5-1.9c.5-.5.9-1.1 1.4-1.7l.3-1.1c-.2.4-.5.8-.8 1.2-.2.5-.5 1.1-.9 1.6zm-.1-.1c-.2.3-.4.7-.7 1l-.1.1c-.1.1-.2.2-.4.3.5-.4.9-.9 1.2-1.4zm2.3-4.4c0-.1.1-.1.1-.2s0-.2.1-.3c-.1.2-.2.3-.2.5zm.8-4.3a21.16 21.16 0 0 1-1.9 6.4c-.2.4-.5.9-.8 1.3-1.6 2.1-3.6 4.1-6 6-2.3 1.6-4.8 3.2-7.7 4.8-.1 0-.1.1-.2.1-.5.2-.9.3-1.4.5 3.8-2.3 7-5.1 9.7-8.1 1.2-1.2 2.3-2.5 3.2-4.1 2.2-2.4 3.8-4.7 5.1-6.9zm-4.3-24.2c1 2.8 1.9 5.4 2.5 7.8 1.3 4.7 2 9.3 1.9 13.6-1.1 2.5-2.4 5.1-4 7.6.8-1.7 1.6-3.7 2.1-5.8 1.4-5.4.6-11.6-1.5-17.9-2.1-6.3-5.5-12.7-9.3-18.5-3.8-5.8-8-11.1-11.7-15.2-1.9-2-3.6-3.8-5.1-5.1-1.5-1.3-2.8-2.3-3.7-2.8-.4-.2-.7-.4-1.1-.6 1-.4 1.9-.7 2.9-1 4.1 2.6 8.1 6.3 11.8 10.9 4.9 6.2 10.7 15.9 14.8 26.2.2.2.3.5.4.8zm2.7 7.8c-.7-2.6-1.6-5.2-2.5-7.8-.6-1.8-1.4-3.6-2.2-5.6-.1-.3-.3-.7-.5-1.2-1.6-4-5.6-14-11.1-21.2-2.7-3.5-6.1-7.5-10.2-10.8l1.5-.3c3.6 3.1 6.7 6.8 9.3 10.2C75 24 79 34 80.6 38c.2.5.4.9.5 1.2 4.5 11 6.6 19.3 6.6 26-.2.5-.4.9-.5 1.4.1-3.9-.6-8.2-2-13.1zm1.9 15.6c.1-.7.1-1.4.1-2.1.2-.4.4-.9.5-1.3 0 .9-.1 1.7-.2 2.6-.1.2-.2.5-.4.8zm-.1.9c0-.1 0-.3.1-.4.2-.3.3-.5.5-.8-.2 1.4-.5 2.7-.9 3.9L87 70zM58.6 6.8l1.5-.3c-.3-.3-.6-.5-.9-.7l-.1-.1c-.5.1-1 .2-1.5.4.2.1.3.2.5.4.1 0 .3.1.5.3zM57.4 6c.2.1.4.3.6.4.2.1.3.2.5.4-.9.2-1.8.5-2.7.7-.4-.2-.8-.5-1.2-.7.9-.3 1.8-.5 2.8-.8zm0-.2c.5-.1 1-.2 1.5-.4-.4-.3-.7-.6-1.1-.8l-1.7.3c.4.3.9.6 1.3.9zm-1.6-.9c.5.3.9.6 1.3.9-1 .2-1.9.5-2.9.8-.6-.3-1.2-.7-1.8-1 1.3-.2 2.3-.5 3.4-.7zm.1-.2 1.7-.3c-.4-.3-.8-.5-1.2-.8-.6.1-1.2.1-1.8.2.4.4.9.7 1.3.9zM54.3 4c.4.3.9.5 1.3.8-1.1.2-2.2.5-3.4.9-.5-.2-1-.5-1.5-.7 1.2-.5 2.4-.8 3.6-1zm.1-.2 1.8-.3c-.2-.1-.4-.3-.6-.4l-1.8.3c.1.1.4.3.6.4zm-1-.3c.2.1.4.2.7.4-1.2.2-2.4.6-3.6 1-.4-.1-.7-.3-1.1-.4 1.3-.5 2.6-.8 4-1zm.1-.2 1.8-.3c-.4-.2-.7-.4-1.1-.6l-1.8.3c.3.2.7.4 1.1.6zM52 2.8l1.2.6c-1.4.3-2.8.6-4.1 1-.5-.2-.9-.3-1.4-.4 1.5-.6 2.9-1 4.3-1.2zm.1-.2 1.8-.3c-.5-.2-1-.5-1.5-.7-.6.1-1.3.1-1.9.2.5.3 1 .5 1.6.8zM50 1.9c.6.2 1.2.4 1.7.7-1.4.3-2.9.7-4.3 1.2-.8-.2-1.5-.4-2.3-.5 1.7-.6 3.3-1.1 4.9-1.4zm.1-.1c.6-.1 1.2-.2 1.9-.3-.5-.2-1-.3-1.5-.5-.6.1-1.3.1-1.9.2.4.2.9.4 1.5.6zM48 1.4c.6.1 1.1.3 1.7.5-1.6.3-3.3.8-4.9 1.4-.7-.2-1.4-.3-2.1-.3 1.7-.8 3.5-1.3 5.3-1.6zm0-.2 1.8-.3c-.6-.1-1.2-.2-1.9-.3-.7.1-1.3.1-2 .3.8 0 1.5.1 2.1.3zM45.4 1c.8 0 1.5.2 2.2.3-1.8.4-3.6.9-5.3 1.7-1 0-1.9 0-2.9.1 1.9-1 3.9-1.7 6-2.1zm0-.2 1.7-.3h-1.6c-.7 0-1.4.1-2 .2-.2 0-.5.1-.7.2.3 0 .6 0 .9-.1.6-.1 1.1-.1 1.7 0zm-3.6.3c.6-.1 1.3-.1 1.9-.2h1A31 31 0 0 0 38.9 3c-.9.1-1.8.3-2.7.5 1.8-1 3.7-1.8 5.6-2.4zm-.9.1c-1.8.6-3.6 1.5-5.4 2.6h-.1c-1.7.6-3.3 1.3-4.8 2.1 2.8-2.1 5.7-3.6 9-4.5.4-.1.8-.1 1.3-.2zm17.7 5.7c4 3.3 7.6 7.4 10.2 10.9C74.3 25 78.3 35 79.9 39v.1c-3.8-8.2-8.4-15.6-12.4-20.6-3.6-4.6-7.6-8.2-11.7-10.8 1-.3 1.9-.5 2.8-.8zm21.8 33.3zM5.9 52.1v-1.7c.2.7.5 1.4.7 2.1v1.1c-.1-.3-.3-.6-.4-.9l-.3-.6zm0-2.2c.2.7.5 1.4.7 2.1-.1-3.9.1-7.6.5-11-.2-2-.1-3.8.3-5.3 0-.1.1-.3.1-.4l-.2.2c-.3 1.4-.6 2.8-.8 4.3-.4 3.1-.6 6.5-.6 10.1zm1.2-14.3a9.96 9.96 0 0 0-3 3.6c-.2.4-.3 1-.3 1.7s.1 1.5.3 2.4c.3 1.8.9 3.9 1.5 5.9v.1c0-3.4.3-6.6.7-9.6.3-1.4.5-2.7.8-4.1zm.3-.4c.1-.1.2-.2.3-.2.4-1.2.9-2.5 1.5-3.9.2-.5.3-.9.5-1.4-.3.1-.5.1-.8.2a41 41 0 0 0-1.5 5.3zM48.9.5l1.5.3c.4 0 .7-.1 1.1-.1h.4c-.3-.1-.7-.2-1-.2h-2zm2 .5c.5.1.9.3 1.4.5.4 0 .8-.1 1.3-.1h.2c-.4-.2-.9-.3-1.3-.4h-1.6zm1.8.6 1.5.6c.5-.1.9-.1 1.4-.1-.4-.2-.9-.4-1.3-.6h-.6c-.4.1-.7.1-1 .1zm1.7.8c.4.2.7.4 1.1.6.5-.1 1-.1 1.4-.1-.4-.2-.7-.4-1.1-.6-.4 0-.9 0-1.4.1zm1.4.7c.2.1.4.2.6.4.5-.1 1-.1 1.5-.1-.2-.1-.4-.3-.7-.4-.4 0-.9.1-1.4.1zm.9.6c.4.3.8.5 1.2.8.5-.1.9-.1 1.4-.2-.4-.2-.7-.5-1.1-.7-.5 0-1 0-1.5.1zm1.4.9 1.1.8c.4-.1.9-.2 1.4-.3-.2 0-.2-.1-.3-.1-.3-.2-.5-.4-.8-.6-.5.1-1 .1-1.4.2zm1.2 1c.3.3.7.5 1 .8.5-.1.9-.2 1.4-.2-.4-.3-.7-.6-1.1-.9-.3.1-.8.2-1.3.3zm22.1 33.5c4.4 10.7 6.6 19 6.6 25.6.2-.6.4-1.3.7-1.9-.2-6.5-2.3-14.5-6.6-24.9-.1-.3-.3-.7-.5-1.2-1.6-4-5.6-13.9-11.1-21.2-2.4-3.1-5.2-6.5-8.5-9.2-.5.1-.9.1-1.4.2 3.6 3.1 6.7 6.8 9.2 10.1 5.5 7.3 9.5 17.2 11.1 21.2.2.6.3 1 .5 1.3zm6.5 26.1c0 .9-.1 1.8-.2 2.7.2-.4.5-.9.7-1.3.1-1 .2-2.1.1-3.2-.1.5-.3 1.2-.6 1.8zm-1.4 8.2c-.1.2-.2.5-.3.7 0 .1-.1.3-.1.4.4-.8.8-1.6 1.1-2.4.6-1.6 1-3.2 1.2-5-.2.4-.4.8-.7 1.2-.2 1.8-.6 3.5-1.2 5.1zm-.8 1.8c0 .1-.1.1-.1.2.1-.1.1-.1.1-.2zm-4.9 6.4c.5-.5 1-.9 1.4-1.4-.2.3-.5.6-.8.9-.2.1-.4.3-.6.5zm-3.1 2.8c.2-.1.3-.2.5-.3-1 .8-2.1 1.7-3.3 2.5-.5.3-1 .5-1.6.7a42 42 0 0 0 4.4-2.9zM72.2 88c.6-.2 1.1-.5 1.7-.7-.2.2-.5.3-.7.5-.4.2-.8.3-1.3.5l-.3.1c.2-.1.4-.2.6-.4zm-.2.5c.2-.1.3-.1.5-.2-1.3.8-2.6 1.6-4 2.4-.4.1-.9.2-1.3.2 1.2-.7 2.4-1.3 3.5-2 .2-.1.4-.2.6-.2.1 0 .2-.1.3-.1l.4-.1zm-5.3 2.7c.4-.1.9-.1 1.3-.2-1.2.7-2.5 1.4-3.8 2.1-11.7 6.3-24.9 6.4-35.7 4.3-5.4-1.1-10.2-2.7-13.8-4.4-1.8-.9-3.4-1.8-4.6-2.6-1.3-.9-2.1-1.7-2.6-2.4-.9-1.4-1.3-2.5-1.3-3.5 0-.9.2-1.8.5-2.9.1-.2.1-.4.2-.6.8-2.9 1.7-7.5.6-16.8-.4-3.2-.6-6.4-.8-9.4.3 1 .7 2.1 1 3.5.1 1.6.3 3.2.5 4.8 1.1 9.3.1 13.8-.6 16.8-.1.2-.1.4-.2.6-.3 1.1-.5 2.1-.5 3 0 1.1.3 2.1 1.3 3.6.5.7 1.4 1.6 2.6 2.4 1.2.9 2.8 1.7 4.6 2.6 3.7 1.7 8.5 3.4 13.9 4.5 10.8 2.1 24.1 2 35.8-4.3l.6-.3c.1 0 .1-.1.2-.1s.2-.1.2-.1c.1 0 .1-.1.2-.1s.1-.1.2-.1c.1-.4.1-.4.2-.4zm-59-34.1c-.3-1.1-.6-2.1-.9-3v-1l.6 1.8c.1.2.2.5.2.7.1.4.1 1 .1 1.5zm-.2-2.3c-.2-.7-.5-1.5-.8-2.3-.1-3.8 0-7.4.4-10.7 0 .4.1.7.2 1.1.1.7.3 1.4.4 2.1-.2 3.2-.3 6.5-.1 10l-.1-.2zm0-12c-.1-.6-.2-1.2-.2-1.9l.3-2c.2-1.4.5-2.8.8-4.2.4-.3.8-.5 1.2-.8-.3 1.2-.6 2.5-.9 3.8-.4 2.1-.7 4.3-.9 6.6-.2-.5-.3-1-.3-1.5zm-.2-3.9c.2-1.4.5-2.7.8-4-.1.1-.2.1-.3.2-.1.2-.1.4-.2.6-.4 1.3-.5 2.8-.4 4.3 0-.4.1-.7.1-1.1zm2.3-5.2c-.4.3-.8.5-1.2.8.3-1.1.6-2.3 1-3.3.2-.5.5-1 .7-1.6.3-.1.6-.2 1-.3-.6 1.4-1.1 2.9-1.5 4.4zm-1.4.9c.2-.6.3-1.2.5-1.9-.3.7-.6 1.4-.8 2 .1 0 .2 0 .3-.1zm5.5-11.8C12.3 25 11 27.2 10 29.2c1.1-2.4 2.3-4.6 3.7-6.4zM45.7.3c.8 0 1.5 0 2.3.1.3 0 .6 0 .8-.1h.6c-.9-.1-1.8-.1-2.8-.1-.2.1-.5.1-.9.1zM35.6 4c-1.2.7-2.3 1.5-3.5 2.5-1.7 1.3-3.4 2.8-5.2 4.4 1.9-1.6 3.7-2.8 5.6-3.7.6-.4 1.1-.8 1.7-1.2 1.4-1 2.8-1.9 4.2-2.6-1 .1-1.9.3-2.8.6zm-10.2 8.2c-2.1 2-4.2 4.1-6.4 6.3l-2 2c-2.3 2.3-4.1 5.2-5.6 8.5l1.2-.3c.1 0 .2-.1.3-.1 1.6-3.7 3.7-6.9 6.1-9.3.7-.7 1.4-1.4 2.2-2.1 1.4-1.9 2.8-3.6 4.2-5zM9.8 33.6c.4-1.5.9-2.9 1.5-4.3l1.3-.3h.2c-.3.7-.6 1.4-.9 2.2-.2.5-.4 1-.6 1.6-.5.2-1 .5-1.5.8zM7.9 44.9c.2-2.5.5-4.9.9-7.2.3-1.4.6-2.7.9-4l1.5-.9c-.7 2.1-1.2 4.2-1.5 6.5 0 .1-.1.3-.1.4C9 41 8.7 42 8.5 42.9c-.1.2-.1.5-.2.7-.2.6-.3 1.2-.3 1.8 0-.1-.1-.3-.1-.5zm-.1 10.6c-.2-3.5-.2-6.8 0-9.9.1.1.2.4.2.6 0 .7.1 1.4.2 2.2 0 .2.1.5.1.8.2 1.3.3 3 .4 5.2v1.9c0 .7 0 1.4.1 2.2 0-.1 0-.1-.1-.2 0-.1 0-.2-.1-.2 0-.5-.4-1.4-.8-2.6zm.2 2.6c-.1-.7-.1-1.4-.1-2 .3.9.6 1.6.7 2 0 .1 0 .1.1.2.1.2.2.5.3 1l.3 4.5c-.3-1.6-.6-3-.8-4.2-.3-.5-.4-1-.5-1.5zm.1 1.3c.1 1.2.2 2.4.4 3.5 1.1 9.3.1 13.9-.6 16.8-.1.2-.1.4-.2.6-.3 1.2-.5 2-.5 2.9 0 1 .3 2.1 1.3 3.5.5.7 1.3 1.5 2.5 2.4 1.2.8 2.8 1.7 4.6 2.6a59 59 0 0 0 13.8 4.4c9.1 1.8 19.8 2 30-1.7-9.9 3.3-20.2 3.1-29 1.4-5.4-1.1-10.2-2.7-13.9-4.5-1.8-.9-3.4-1.8-4.6-2.6-1.2-.9-2.1-1.7-2.6-2.4-.9-1.4-1.3-2.5-1.3-3.6 0-.9.2-1.8.5-3 .1-.2.1-.4.2-.6.5-2.1 1.2-5 1.1-9.9-.2-1.2-.3-2.3-.4-3.5-.4-2.4-.8-4.4-1.2-6.1-.1-.1-.1-.1-.1-.2zm58.1 31.9c-.2.1-.3.2-.5.3-11.6 6.1-24.6 6.2-35.3 4.1-5.4-1.1-10.2-2.7-13.8-4.4-1.8-.9-3.4-1.8-4.6-2.6-1.2-.9-2.1-1.7-2.5-2.4-.9-1.4-1.3-2.5-1.3-3.5 0-.9.2-1.8.5-2.9.1-.2.1-.4.2-.6.5-1.9 1.1-4.5 1.1-8.7 0 .2.1.3.1.5l.3 1.8c0 .3.1.7.1 1-.2 1.9-.6 3.3-.8 4.4-.1.2-.1.4-.2.6-.3 1.1-.5 2.1-.5 3 0 1.1.3 2.1 1.3 3.6.5.7 1.4 1.6 2.6 2.4 1.2.9 2.8 1.7 4.6 2.6 3.7 1.7 8.5 3.4 13.9 4.5 10.3 2 22.9 2 34.3-3.5.1 0 .3 0 .4-.1-.1-.1 0-.1.1-.1zm3.1-1.8L66.6 91c-.1 0-.3 0-.4.1H66c.3-.2.7-.4 1-.5.3-.2.6-.3 1-.5 0 0 .1 0 .1-.1 0 0 .1 0 .1-.1h.1c.4-.2.7-.3 1-.4zm1.4-.8c-.1.1-.2.1-.4.2-.1.1-.2.1-.3.1-.1 0-.2.1-.4.1.1-.1.3-.1.4-.2.2 0 .5-.1.7-.2zm2.2-1.4c-.4.2-.7.5-1.1.7-.1 0-.2.1-.3.1.5-.2.9-.5 1.4-.8zm13-12c-.1.5-.3.9-.4 1.3 1.1-1.6 2-3.3 2.7-5.1.8-2.1 1.3-4.4 1.4-7-.3.7-.6 1.3-.9 2-.2 2-.6 3.8-1.3 5.6-.5 1.1-.9 2.2-1.5 3.2zm2.8-9.2c.3-.7.6-1.4.9-2 0-1.2 0-2.4-.1-3.7-.2.8-.5 1.6-.7 2.4 0 1.2 0 2.3-.1 3.3zm.1-3.8c.3-.8.5-1.6.7-2.4-.6-6.1-2.7-13.3-6.4-22.5-.1-.3-.3-.7-.5-1.2C81 32.2 77 22.3 71.5 15c-2.4-3.1-5-6.3-8-8.9-.4 0-.9.1-1.3.1 3.2 2.7 6 6.1 8.4 9.2 5.5 7.3 9.5 17.2 11.1 21.2.2.5.4.9.5 1.2 4.1 10.2 6.3 18 6.6 24.5zM62 6.1c.4 0 .9-.1 1.3-.1-.4-.3-.7-.6-1.1-.9-.3 0-.5.1-.8.1-.2 0-.3 0-.5.1.4.3.8.5 1.1.8zm-1.2-1c.2 0 .4-.1.6-.1.2 0 .4 0 .6-.1l-1-.7h-.4c-.3 0-.6.1-.8.1.2.1.4.3.6.5.1.1.2.2.4.3zm-1.3-.9c.3 0 .7-.1 1-.1h.2l-.9-.6h-1.4c.5.3.8.5 1.1.7zm-1.3-.8h1.4a3 3 0 0 0-.8-.4c-.4 0-.9 0-1.3.1.3 0 .5.1.7.3zm-.9-.6c.4 0 .8-.1 1.2-.1-.4-.2-.7-.4-1.1-.6h-1.2c.4.3.7.5 1.1.7zm-1.4-.7H57c-.4-.2-.7-.3-1.1-.4-.4 0-.8 0-1.2-.1.4.1.8.3 1.2.5zm-1.7-.7h1c-.4-.1-.9-.3-1.3-.4h-.8c.4.1.8.2 1.1.4zM52.5.8h.3c-.2 0-.4-.1-.6-.1.1 0 .2 0 .3.1zM34.2 6.1c1.6-1.1 3.1-2 4.7-2.8 1-.1 2-.2 3-.1-1.6.7-3.3 1.6-4.9 2.6-.8.1-1.6.3-2.4.6-.5.2-1 .3-1.4.5a7 7 0 0 1 1-.8zM21.9 16.5c3.3-4.4 6.6-7.2 9.8-8.8a121 121 0 0 0-9.8 8.8zm10.6-9.2C29 10 25.3 13.4 21.3 17.4c-.5.8-1.1 1.6-1.6 2.4l.5-.5C26 13.9 31.3 9.2 36.5 6c-.6.1-1.2.3-1.9.5-.6.2-1.3.5-2.1.8zM19.2 19.5l1.5-1.5c-.5.7-1 1.5-1.5 2.3-2.4 2.4-4.3 5-5.8 7.7 1.6-3.3 3.5-6.2 5.8-8.5zm-7.1 11.7c-.2.4-.3.9-.5 1.4l1.2-.6c.3-.1.6-.3.8-.4.4-1.1.9-2.1 1.3-3.1-.4.1-.7.2-1 .3-.3.1-.5.1-.7.2-.4.6-.8 1.4-1.1 2.2zm-.5 1.6c-.7 2.1-1.2 4.2-1.6 6.5.3-.6.8-1.3 1.3-2.1.2-.2.3-.5.5-.7.6-1.7 1.2-3.2 1.8-4.8-.2.1-.4.2-.7.3-.4.3-.9.5-1.3.8zM8.7 48.1c.1-2.6.4-5.2.8-7.6-.4 1-.7 1.9-.9 2.6-.1.2-.1.5-.2.7-.2.8-.3 1.5-.3 2.3.3.7.4 1.4.6 2zm.6-4.8c-.2 1.7-.3 3.5-.4 5.3l.3 1c0-2.2 0-4.3.1-6.3zm-1.1 3.6c.2.6.3 1.2.5 1.7 0 .9-.1 1.8-.1 2.7-.1-.8-.2-1.6-.2-2.2 0-.3-.1-.5-.1-.7 0-.6-.1-1-.1-1.5zm.7 2.2c-.1 1.7-.1 3.4 0 5.2v1.3l.3 4.7c.1.4.2.8.2 1.3.2 1.1.4 2.5.6 4.4v-5.5c-.4-3.7-.7-7.1-.8-10.3-.1-.3-.2-.7-.3-1.1zm.4 13.3c-.1-.5-.1-1-.2-1.5.1 1.5.2 3.2.4 4.9v.2l.1.5-.3-4.1zm.2 1c.2 1.6.3 3.1.3 4.4l.3 1.4v-1.5c-.2-1.7-.4-3.1-.6-4.3zm.4 5.5v.3l.3 1.7c0 .1 0 .2.1.3v-.9c-.2-.4-.3-.9-.4-1.4zm78.5 2.7c-.7 1.9-1.6 3.6-2.8 5.2 1.5-1.9 2.7-4 3.5-6.2 0-.1.1-.2.1-.3.2-.6.4-1.1.5-1.7.5-2 .8-4.1.8-6.5-.2.6-.5 1.3-.8 1.9 0 2.9-.5 5.3-1.3 7.6zm2.1-9.9c-.2.6-.5 1.3-.7 2 0-1.2 0-2.5-.2-3.8l.6-2.4c.2 1.4.3 2.8.3 4.2zm-.4-4.8c-.2.8-.3 1.6-.5 2.4-.6-6-2.7-13.2-6.4-22-.1-.3-.3-.7-.5-1.2-1.6-4-5.6-14-11.1-21.2-2.4-3.1-4.9-6.2-7.9-8.8.5 0 1-.1 1.4-.1 2.7 2.3 4.9 5.2 7.1 7.9l.1.1c5.6 7 9.4 16.8 11 20.9.2.6.4 1.1.6 1.4h.1-.1c3.4 8.3 5.4 15 6.2 20.6zM65 5.9c-.5 0-1 0-1.4.1-.4-.3-.7-.6-1.1-.9.5 0 1-.1 1.4-.1.3.3.7.6 1.1.9zm-1.4-1.1c-.5 0-.9 0-1.4.1-.3-.2-.6-.5-1-.7.5 0 .9-.1 1.4-.1.4.3.7.5 1 .7zM62.4 4c-.4 0-.9 0-1.4.1-.3-.2-.5-.4-.8-.5h1.5c.3.1.5.2.7.4zm-.9-.6H60c-.3-.2-.5-.3-.8-.5h1.3c.4.2.7.3 1 .5zm-1.8-.7h-.8c-.3-.2-.7-.4-1.1-.5.5 0 .9 0 1.4.1.3.1.7.3 1 .4h-.5zM58.6 2h-1.2c-.3-.1-.6-.3-.9-.4.6.1 1.2.2 1.7.3.2.1.3.1.4.1zM57 1.5c-.3 0-.7-.1-1-.1-.3-.1-.5-.2-.8-.3.6.1 1.2.3 1.8.4zM37 5.9c-5.3 3.3-10.7 8-16.7 13.6-.3.3-.7.6-1 1-1.4 2.2-2.7 4.8-4 7.7h.2c1.2-2 2.6-4 4.3-5.9 2.2-3.2 5.3-6.3 9.6-9C33 10 36.5 7.5 39.9 5.6c-.9 0-1.9.1-2.9.3zM18.8 21c-2.3 2.4-4.1 4.9-5.5 7.6.2 0 .4-.1.6-.1l1.2-.3c1.2-2.7 2.4-5.1 3.7-7.2zM9.4 50.2c-.1-3.7 0-7.1.4-10.4.4-.7.9-1.6 1.5-2.5.1-.1.1-.2.2-.2-.2.5-.3.9-.5 1.4-.4 1.1-.4 2.4-.2 3.8-.4 2.9-.5 5.9-.4 9.2-.1.5-.1.9-.2 1.4-.2-.6-.5-1.3-.7-1.9.1-.3 0-.6-.1-.8zm.7 8.8c-.3-2.9-.5-5.6-.6-8.2 0 0 0 .1.1.1.3.8.5 1.5.8 2.3-.2 1.8-.3 3.6-.3 5.4v.4zm.1 3.1v5.6c.1.9.2 2 .3 3.1.2-2.3.1-5.1-.3-8.7zm.5 9.9c.2-2.6.1-6-.4-10.5 0-.3-.1-.6-.1-.9v-2c0-1.7.1-3.3.2-5 .1.1.1.3.2.4.1 2.2.3 4.5.6 6.9.7 6.3.5 10.4.1 13.3l-.6-1.8c.1-.2.1-.3 0-.4zm-.1.2c0-.2-.1-.4-.1-.6 0 .4 0 .8.1 1.2-.1-.2-.1-.4 0-.6zm0 1.2V73c0 .4.1.8.1 1.2 0-.3 0-.5-.1-.8zM62 92.7c-10.3 4-21.4 3.8-30.7 2-5.4-1.1-10.2-2.7-13.8-4.4-1.8-.9-3.4-1.8-4.6-2.6-1.2-.9-2.1-1.7-2.5-2.4C9.3 83.9 9 82.9 9 81.8c0-.9.2-1.8.5-2.9.1-.2.1-.4.2-.6.3-1 .5-2.2.8-3.7l.3 2.5c0 .2-.1.4-.1.6-.1.2-.1.4-.2.6-.3 1.1-.5 2.1-.5 3 0 1.1.3 2.1 1.3 3.6.5.7 1.4 1.6 2.6 2.4 1.2.9 2.8 1.7 4.6 2.6.8.4 1.6.7 2.5 1.1 2.4 1.2 5.1 2.2 8.7 2.8l2.7.6c8.9 1.7 19.5 1.9 29.6-1.7zm23.2-15.2c-.1.2-.1.4-.2.6.3-.3.6-.6.8-.9.7-1 1.3-2 1.8-3.1-.6 1.2-1.5 2.3-2.4 3.4zm4.2-7.1c.2-.6.4-1.1.5-1.7l.6-2.4c.4-2.2.7-4.3.8-6.6 0-.2.1-.3.1-.5v3.1c0 1.4-.1 2.8-.2 4.2-.2 1.2-.6 2.4-1 3.5-.8 2.2-2 4.2-3.4 6.1 1-1.8 1.9-3.7 2.6-5.7zm1.2-5.6c.1-1 .1-2 .1-3.1.1-.4.3-.8.4-1.2-.1 1.4-.3 2.9-.5 4.3zm.1-3.6c.2-.5.3-1 .4-1.4.1-1.3.1-2.6 0-3.9-.1-.7-.2-1.3-.4-2-.1 1-.3 2-.5 3.1.3 1.4.4 2.8.5 4.2zm-.5-4.8c.2-1.1.4-2.2.4-3.2-1-4.9-2.9-10.6-5.6-17.3-.1-.3-.3-.8-.6-1.4-1.6-4.2-5.4-13.9-11-20.9-2.2-2.7-4.4-5.4-7-7.5h-1.1c2.6 2.3 4.8 5.1 7 7.8l.1.1c5.6 7 9.4 16.8 11 21 .2.6.4 1.1.6 1.4 3.3 7.9 5.4 14.4 6.2 20zm-25-50.5h1.1c-.4-.3-.7-.6-1.1-.9h-1c.3.3.7.6 1 .9zm-1.3-1.1h1l-1-.7H63c.3.3.6.5.9.7zM62.7 4h.8l-.6-.3h-.8c.2 0 .4.1.6.3zm-.9-.6h.7c-.3-.2-.7-.3-1-.5-.2 0-.4 0-.6-.1.4.3.7.4.9.6zm-1.2-.7h.4c-.4-.2-.8-.3-1.2-.4h-.1c.4.1.6.3.9.4zm-18.3.4c.7 0 1.5.1 2.2.2-1.4.6-2.8 1.2-4.3 2-.9 0-1.8.1-2.8.2 1.7-.9 3.3-1.7 4.9-2.4zM22.7 19.2c1.9-1.8 3.7-3.5 5.5-5-3.1 2.2-5.5 4.5-7.4 6.9.6-.7 1.3-1.3 1.9-1.9zm.1.1c2.3-2.2 4.5-4.2 6.7-6 .9-.6 1.9-1.2 2.9-1.8.9-.5 1.8-.9 2.8-1.3-3.4 2.4-6.8 5.2-10.4 8.6-2.9 2.8-5.4 5.7-7.3 8.7-.1 0-.2.1-.4.1.7-1.9 1.6-3.6 2.7-5.4 1-.9 2-1.9 3-2.9zm-7 8.7c1-1.6 2.1-3.2 3.3-4.7-.9 1.4-1.6 2.9-2.1 4.4l-1.2.3zm-.6.3h.2c-.4.6-.7 1.3-1 2 .3-.7.5-1.4.8-2zm.5-.1c-.6 1-1.1 2-1.6 3.1.6-.3 1.3-.6 1.9-.9.2-.3.3-.7.5-1 .1-.5.3-1 .5-1.5-.5.1-.9.2-1.3.3zM12.1 36c.1-.2.2-.5.3-.7-.1.2-.1.4-.3.7.1 0 .1 0 0 0 .1 0 0 0 0 0zm1.9-4.5c-.6 1.3-1.1 2.7-1.5 4 .6-.8 1.4-1.7 2.3-2.6.3-.8.7-1.6 1.1-2.3-.7.3-1.3.6-1.9.9zm-2.1 5.1c0-.1.1-.1.1-.2-.1.2-.1.5-.2.7-.4 1.5-.7 3-.9 4.5a8 8 0 0 1 .2-3.1c.4-.6.6-1.3.8-1.9zm.2.5c-.4 1.6-.7 3.4-1 5.1.1.4.2.9.3 1.4.1.4.2.9.4 1.3.1-.3.1-.5.2-.8.3-2.6.8-5.1 1.5-7.5.3-1.1.7-2.1 1.1-3.2-.9.9-1.6 1.8-2.2 2.6l-.3 1.1zM11 42.8c-.3 2.4-.4 4.9-.3 7.5.3-1.7.6-3.4 1-5.1-.2-.5-.3-1.1-.5-1.6 0-.2-.1-.5-.2-.8zm-.5 10.4c0-.2 0-.4.1-.6v.9c0-.1-.1-.2-.1-.3zm.2-1.8c0 .8.1 1.7.1 2.6.3.9.7 1.7 1 2.5-.1-1.4-.1-2.7-.1-4-.1-2.4 0-4.6.1-6.8 0 0 0-.1-.1-.1-.4 1.9-.7 3.9-1 5.8zm.7 9.5c.8 6.5.5 10.7.1 13.6.2.4.4.8.6 1.3.3-1.3.6-3 .7-5.2 0-2.7-.1-5.9-.5-9.5-.2-1.4-.3-2.7-.4-4.1-.3-.8-.7-1.6-1-2.5.1 2.1.3 4.2.5 6.4zm-.5 12.4c.1.4.3.8.4 1.2-.1.4-.1.8-.2 1.1v-.2c-.1-.7-.2-1.4-.2-2.1zm.5 1.5c-.1.4-.1.8-.2 1.2.1.5.3 1 .4 1.5 0-.1.1-.3.1-.5.1-.3.2-.6.2-1-.1-.4-.3-.8-.5-1.2zm-.5.8c0 .2 0 .4.1.6 0 .1-.1.2-.1.4l-.3-2.3c.1.4.2.8.3 1.3zm.2 1.1c0 .1-.1.2-.1.3 0 .1 0 .3.1.4.1.4.2.9.2 1.3 0-.1.1-.3.1-.4-.1-.4-.3-1-.3-1.6zm7.4 13c.1 0 .2.1.3.1-.5-.3-.9-.5-1.3-.8-.8-.5-1.5-1-2.2-1.6-.4-.2-.6-.4-.9-.5-.7-.5-1.2-1.2-1.5-1.9-.3-.3-.5-.5-.6-.8-.9-1.4-1.3-2.5-1.3-3.6 0-.5.1-.9.2-1.4-.1-.5-.2-1.1-.3-1.7v.2c-.1.2-.1.4-.2.6-.3 1.2-.5 2-.5 2.9 0 1 .3 2.1 1.3 3.5.5.7 1.3 1.5 2.5 2.4 1.1.8 2.7 1.7 4.5 2.6zm2.5 1.1c2.5 1 5.4 2 8.6 2.7 1 .2 2.2.3 3.4.4.9.1 1.9.1 3 .2-.9-.1-1.7-.3-2.6-.5-5.4-1-10.2-2.6-13.9-4.4-.1 0-.2-.1-.2-.1-.6-.2-1.2-.5-1.8-.7-.6-.2-1.1-.5-1.6-.7.5.4 1.1.8 1.7 1.2 1.1.7 2.2 1.3 3.4 1.9zm11.4 3.3c-.2 0-.4-.1-.6-.1.4 0 .8.1 1.2.1 1.3.1 2.8.2 4.3.2 8.5 1.2 18 .8 27.1-2.7-10.8 4.5-22.4 4.4-32 2.5zm52.5-15.6c.1-.1.1-.2.2-.2l-.2.2zm.4-.2c.3-.3.5-.7.7-1 1.9-2.2 3.4-4.6 4.4-7.2.2-.7.5-1.3.6-2l-.6 3.4c-1.2 2.5-2.9 4.7-5.1 6.8zm5.4-7.5c.3-1.4.5-2.9.6-4.3.5-2.5.6-5.2.3-8.3 0-.2.1-.4.1-.6L92 60c.1 1.1.3 2.2.4 3.3 0 .2 0 .3.1.5-.2 2-.6 3.8-1.3 5.5-.1.6-.3 1.1-.5 1.5zm.8-7.2c.1-1 .1-2 .1-3v1.7c0 .5 0 .9-.1 1.3zm.1-6c0-.1.1-.3.1-.5v-.6c0-.2-.1-.4-.1-.6v.8c-.1.3 0 .6 0 .9zm-.3-1.7v-1.6c0-.2 0-.3-.1-.5.1.7.1 1.3.1 2.1 0-.1 0 0 0 0zm.1 1.7v-.4 1.6c0-.1.1-.3.1-.4-.1-.2-.1-.5-.1-.8zm-.5-5.5c.1.8.1 1.6.2 2.4-.1-.4-.2-.8-.2-1.3v-1.1zm-.1-.1v.6a111.65 111.65 0 0 0-6.1-18.2c-1.6-4.1-5.4-14-11-21-2.1-2.7-4.3-5.3-6.8-7.3h.1c.4 0 .9 0 1.3.1 2.2 1.8 4.2 4.2 6.3 6.7 5.6 6.7 9.3 16.4 10.9 20.7.3.7.5 1.3.6 1.7 1.7 4.1 3 7.8 4.1 11.3.2 1.2.4 2.4.5 3.7 0 .2 0 .3.1.5V52zM66.9 5.9h-.4c-.4-.3-.7-.6-1.1-.8.5 0 1 .1 1.5.2.5.2.8.4 1.1.7-.4-.1-.7-.1-1.1-.1zm-.2-.9c-.5-.1-1-.1-1.5-.2-.3-.2-.6-.4-1-.7.5 0 1 .1 1.5.2.4.3.7.5 1 .7zm-1.3-.8c-.5-.1-1-.2-1.5-.2-.2-.1-.3-.2-.5-.3.6.1 1.2.2 1.7.3.1.1.2.1.3.2zm-.9-.5c-.5-.1-1-.2-1.5-.2-.3-.1-.5-.3-.8-.4.6.1 1.2.2 1.8.4.1 0 .3.1.5.2zM62.7 3c-.3-.1-.7-.1-1-.2-.3-.1-.5-.2-.8-.3.6.1 1.2.3 1.8.5zm-17.9.4c-1.4.5-2.8 1.2-4.2 2 .9 0 1.7.1 2.6.2 1.3-.6 2.7-1.2 4-1.6-.8-.3-1.6-.5-2.4-.6zm-1.9 2.3c-.8-.1-1.7-.1-2.6-.1-3.2 1.8-6.4 4.1-9.8 6.9.6-.4 1.2-.7 1.8-1.1 1.1-.6 2.2-1.1 3.4-1.4 2.4-1.8 4.8-3.2 7.2-4.3zm-7.1 4.4A90.4 90.4 0 0 0 25 19a39.6 39.6 0 0 0-7.1 8.5c.5-.1 1-.3 1.5-.4 1.2-1.7 2.6-3.3 4.1-4.7l.1-.1c5.2-4.9 9.9-9.3 14.9-12.7-.9 0-1.8.2-2.7.5zM17.5 27.8c-.1 0-.2.1-.3.1l-.3.9c.1-.4.3-.7.6-1zm-.9 1.7c.3-.6.7-1.2 1.1-1.8.5-.1 1-.3 1.4-.4-.5.8-1.1 1.6-1.5 2.4-.4.2-.7.3-1.1.5 0-.2.1-.5.1-.7zm-.4.8c0-.1.1-.1.1-.2 0 .1 0 .1-.1.2zm-1.1 2.3c.3-.7.6-1.4 1-2.1 0 0 .1 0 .1-.1v.2c-.1.4-.2.8-.2 1.2-.3.3-.6.5-.9.8zm-2.8 10.5c.3-2.3.7-4.4 1.3-6.4.4-1.2.8-2.4 1.3-3.6.3-.3.6-.7 1-1-.1.3-.1.7-.1 1a36 36 0 0 0-2.6 7.4c-.3.9-.6 1.7-.9 2.6zm-.4 2.1zm.2.5c0-.5.1-1 .1-1.5l.6-2.1c-.3 1.3-.5 2.6-.7 3.9.1-.1 0-.2 0-.3zm-.2 3c0-.9.1-1.7.1-2.6 0 .1.1.2.1.3 0 .7-.1 1.5-.2 2.3zm.3 8.7c-.2-1.7-.3-3.4-.3-5 0-2 .1-3.9.3-5.8.4 1.1.9 2.2 1.4 3.3l.9 2.1c1.9 4 3.9 8.4 4.9 12.9 2.7 12.3 9.4 18 16 20.6 6 2.3 12 2.1 14.8 2h.8c.6 0 1.4 0 2.4.1 3.3.2 8.7.5 14.2-.8 2.6-.6 5.3-1.7 7.7-3.3-.8.8-1.7 1.6-2.6 2.4-1.5 1.3-3.1 2.4-4.8 3.4-.6.2-1.3.4-1.9.5-5 1.2-9.4 2.2-13.4 2.8-4.3.3-8.4.5-12.3.4-1.3-.2-2.6-.5-3.8-.8-4-1.1-7.4-2.5-9.8-4-2.5-1.4-4.1-2.8-4.8-3.7-2.9-4.1-4.2-7.7-4.9-11.1-.3-1.2-.5-2.3-.6-3.4-.1-.5-.2-1-.3-1.4-.3-1.5-.6-3-1.1-4.4-.4-1.2-1.1-2.7-1.8-4.5-.2-.4-.3-.8-.5-1.2-.1-.3-.3-.7-.5-1.1zm-.1.7.3 3 .3 2.8-.3-3.6-.3-2.2zm.8 12.5c.2-2.6.1-5.9-.4-10.3-.1-.8-.2-1.5-.2-2.2.1.2.2.4.2.6.2.4.4.8.5 1.2.8 1.8 1.4 3.3 1.8 4.5.5 1.4.8 2.9 1.1 4.4l.3 1.4c.2 1.1.4 2.2.7 3.4.7 3.4 2 7.1 4.9 11.2.7.9 2.3 2.3 4.8 3.8 2.5 1.4 5.9 2.9 9.9 4l2.7.6h-.1c-2.2-.4-4.3-.9-6.4-1.5-3.6-1-7-2.3-9.9-3.5-4.8-3.2-8.2-7.2-10.3-11 .3-2 .4-4.2.4-6.6zm-.7 5.4c.2-.9.4-1.9.5-3 0 1.4-.1 2.6-.2 3.7-.1-.2-.2-.5-.3-.7zm-.5 1.8v-.1c.1-.2.1-.4.2-.6.1-.2.1-.5.2-.8.1.3.3.5.4.8 0 .5-.1 1-.1 1.5v1c-.2-.4-.3-.8-.5-1.3-.1-.2-.1-.3-.2-.5zm-.2 0-.3-1c.1.4.1.8.2 1.2.1-.1.1-.1.1-.2zm.1.6c0-.1 0-.2.1-.3 0 .1.1.2.1.2.2.6.4 1.1.6 1.7v.7c-.4-.7-.6-1.5-.8-2.3zm-.2.8c0-.1.1-.3.1-.4.2.9.5 1.7.9 2.4 0 .5 0 .9.1 1.4-.5-1.1-.9-2.2-1.1-3.4zm1.4 5.3c-.1-.1-.2-.3-.3-.4-.9-1.4-1.3-2.5-1.3-3.5 0-.3 0-.6.1-1a19 19 0 0 0 1.2 3.6c0 .2 0 .3.1.4 0 .3.1.6.2.9zm.5.8c.3.5.7 1 1.2 1.4.1.1.2.1.3.2-.3-.3-.6-.6-.8-1-.2-.1-.5-.4-.7-.6zm.4.1-.6-.6-.3-1c.2.6.5 1.1.9 1.6zm.9 1c.3.3.5.6.8.9.6.3 1.3.6 2.2 1 .1 0 .1 0 .2.1-1.1-.6-2.1-1.2-2.9-1.8-.1-.1-.2-.1-.3-.2zm4.8 2.5c-1.7-.8-3.2-1.7-4.4-2.5-.3-.2-.6-.4-.8-.6-.6-.8-1.1-1.7-1.5-2.7-.1-.5-.1-1-.1-1.6.9 1.9 2.1 3.5 3.7 4.8 1.3 1.2 2.8 2.2 4.5 3-.6 0-1-.2-1.4-.4zm17.9 5.2-3.9-.6c-4.7-.9-9-2.3-12.5-3.8.3.1.7.2 1.1.3 1.9.8 4 1.4 6.2 1.9 1.1.2 2.3.5 3.5.6 1.9.6 3.9 1.2 6 1.6h-.4zm1.3.2c.2 0 .4 0 .5.1-.1 0-.3 0-.4-.1h-.1c.1 0 0 0 0 0zm24.7-2.5c.2-.1.4-.1.6-.2h-.1c-.2.1-.3.2-.5.2zm2.1-.8c-.3.1-.5.2-.8.3h-.2c.1 0 .1-.1.2-.1.3 0 .5-.1.8-.2zm2.9-1.3c-.2.1-.4.2-.5.3h-.1c-.5.2-.9.4-1.4.5l.6-.3c.4-.2.9-.3 1.4-.5zm16.4-10.6c-.3.8-.6 1.5-.9 2.2 1.9-1.5 3.6-3.1 5-4.8.3-.7.6-1.4.8-2.2l.6-2c-1.3 2.4-3.2 4.7-5.5 6.8zm5.9-7.5a27.59 27.59 0 0 1-1.4 4.3c2.4-3.2 3.7-6.8 3.4-11.1-.2 1.7-.6 3.2-1.2 4.7-.2.7-.5 1.4-.8 2.1zm2-8.5c.2-2.6 0-5.5-.5-8.7 0 .8-.1 1.7-.3 2.7.1 1 .3 1.9.4 2.9.2 1 .3 2.1.4 3.1zm-.8-11.2c-.1-.7-.2-1.5-.4-2.3v.6c.2.6.3 1.1.4 1.7zm-.4-.8c.2.8.4 1.6.5 2.3 0 .8 0 1.9-.2 3l-.3-2.2v-3.1zm-.2-1.7c0-.3 0-.6-.1-.9-.1-.3-.1-.6-.2-.8v.8l.3.9zm-.2-.2c.1.4.2.7.3 1v2.5l-.3-2.2v-1.3zm-.2-1.4v-.9c-.1-.5-.3-1.1-.4-1.6-.1-.2-.1-.4-.2-.6 0 .2.1.3.1.5.1.5.2 1 .2 1.4 0 .4.2.8.3 1.2zm-.2.2c.1.2.1.4.2.6v.7c-.1-.5-.1-.9-.2-1.3zm-.6-2.7v-.1c-.1-.8-.3-1.5-.4-2.3-.6-1.9-1.2-3.6-1.6-4.8-.1-.2-.2-.6-.4-1.1-1-2.9-3.5-10.5-7.5-17.8-2.4-4.2-5.2-8.4-8.6-11.4l-1.8-1.5c-.4-.1-.7-.1-1.1-.2 2.1 1.8 4.1 4.1 6.2 6.6 5.7 6.8 9.3 16.5 11 20.8.3.7.5 1.3.6 1.7 1.4 3.6 2.6 7 3.6 10.1zM68.3 6c.3 0 .7.1 1 .1l-.9-.6c-.3-.1-.7-.2-1-.2.3.2.6.5.9.7zm-1.2-.9c.3.1.6.1.9.2-.3-.2-.7-.4-1-.6-.2-.1-.4-.1-.7-.2.3.2.6.4.8.6zm-1.2-.9c-.1 0 0 0 0 0zM43.5 5.6c1.3-.6 2.6-1.1 4-1.6.5.1.9.3 1.4.4-1.3.4-2.6.9-3.8 1.4-.6 0-1.1-.1-1.6-.2zm-.3.1c.5.1 1 .2 1.6.3-2.1.9-4 2-5.9 3.3-.9.1-1.7.2-2.6.5a50 50 0 0 1 6.9-4.1zM23.7 22.4c5.3-5 10.1-9.5 15.2-12.9.9-.1 1.8-.1 2.7 0-3 2-6.5 4.5-10.7 7.7-3.9 2.9-7.1 6.1-9.8 9.4-.5.1-1 .3-1.5.4 1.2-1.6 2.5-3.1 4-4.5l.1-.1zm-4.3 4.8c-.5.7-1.1 1.5-1.5 2.3.1-.1.3-.1.4-.2.1-.1.2-.1.4-.2.4-.3.8-.7 1.2-1l1-1.3c-.5.2-1 .3-1.5.4zm-3 3.2c.3-.2.7-.3 1-.5-.2.3-.3.6-.5.9-.3.2-.5.5-.7.7.1-.3.1-.6.2-.9v-.2zm1.3-.6-.3.6c.3-.3.6-.6.9-.8-.2.1-.4.1-.6.2zm-1.6 2 .5-.5-.6 1.2c.1-.2.1-.4.1-.7zm1-.9c-.4.7-.8 1.4-1.1 2.2-.1.5-.1.9-.1 1.4.9-1.8 2-3.6 3.2-5.3-.1 0-.2.1-.3.1-.6.6-1.2 1.1-1.7 1.6zm-1.4 2.7c-.8 1.7-1.4 3.5-1.9 5.3.6-1.4 1.2-2.7 1.9-4.1v-1.2zm-2.3 7a37 37 0 0 0-1 5.8c.4 1.1 1 2.4 1.5 3.6l.9 2.1c1.9 4 3.9 8.4 4.9 12.9 2.7 12.3 9.3 17.9 15.9 20.5 6 2.3 11.9 2.1 14.8 2h.8c.6 0 1.4 0 2.4.1 3.3.2 8.7.5 14.2-.8 2.9-.7 5.9-1.9 8.5-3.9 2-2 3.8-4 5.4-5.8.1-.2.2-.3.3-.5 1.3-2.1 2.3-4.6 3.1-7.6 1.4-5.4.6-11.5-1.5-17.8-2.1-6.3-5.5-12.7-9.3-18.5-3.8-5.8-8-11.1-11.7-15.2-1.8-2-3.6-3.8-5.1-5.1-1.5-1.3-2.8-2.3-3.7-2.8-.4-.2-.8-.4-1.2-.7-1.6.6-3.2 1.4-4.8 2.1 2.6 1.2 5.3 2.9 7.8 5 7.7 6.4 15 16.6 21.1 27.6 6.1 11.1 6.6 18.8 5 24.2-1.7 5.4-5.5 8.3-8 9.9-23.1 13-42.4 3.2-47.5-7.6-1.5-3.3-2.2-4.9-3.1-7.4-.7-1.8-1.5-4-3-7.6-2.9-7.1-4.6-13.7-4.4-19.8-.9 1.7-1.7 3.5-2.3 5.3zm-.8 38c0 .5 0 .9-.1 1.4.6 1.3 1.2 2.4 2 3.1 1.3 1.2 3.8 2.7 7 4.2l.6.3c-4.3-3.1-7.5-6.8-9.4-10.3-.1.5-.1.9-.1 1.3zm-.1 1.8v.8c.9 2 2.2 3.7 3.8 5.1 1.6 1.4 3.6 2.6 5.8 3.6l.9.3c2 .6 4.3 1.2 6.8 1.7-2.6-1-4.9-2.3-6.9-3.7-.5-.2-1-.5-1.5-.7-3.2-1.5-5.7-3-7-4.3-.7-.6-1.3-1.6-1.9-2.8zm15.8 11.4c-1.4-.3-2.8-.7-4.1-1.1 2 .6 4.2 1.1 6.6 1.6h.1c-.9-.2-1.7-.3-2.6-.5zm4.4.9c.7.1 1.4.2 2.1.2 1.3.2 2.7.4 4 .5 1.5.2 3 .3 4.5.4h.2l-4.8.3c-2.1-.3-4.1-.8-6-1.4zm10.6 1h-.1.1zm5 .1c4-.1 8.1-.5 11.8-1.4.4-.1.8-.3 1.2-.4-2.9.4-5.8.7-8.6.9-2.2.4-4.2.7-6.1.9h1.7zm17.4-3.4c.5-.2 1-.5 1.5-.7L66 90c-4.2 1-8 1.9-11.5 2.5 2.5-.2 5-.5 7.6-.8 1.3-.4 2.5-.8 3.6-1.3zm-26.8 2.9c.6.1 1.2.1 1.8.2l-1.5-.3c-.6 0-1.1 0-1.7-.1.5.1.9.1 1.4.2zM38 93c-1.1-.1-2.1-.1-3.2-.2-1.4-.2-2.7-.5-4-.7-2.6-1-4.9-2.2-7-3.5 2.7 1.1 5.7 2.2 9 3.1 1.7.5 3.4.9 5.2 1.3zm19.2.2c-3.3.8-6.9 1-10.6.8h1.6c2.9 0 5.9-.3 9-.8zm20-11c-1.3 1.4-2.8 2.7-4.4 3.9 1.2-1.1 2.3-2.1 3.4-3.2.4-.2.7-.5 1-.7zm.7-.8c-.2.2-.4.3-.5.5.9-.9 1.8-1.9 2.6-2.8l-1.4 1.7c-.3.2-.5.4-.7.6zM90.8 45c.1.9.2 1.7.3 2.4 0-.2-.1-.4-.2-.6 0-.5-.1-1.2-.1-1.8zm-.5-3.5c.2 1.6.3 3.1.4 4.5-.1-.3-.1-.5-.2-.8l-.6-1.8c-.5-3-1-5.9-1.7-8.9-.3-1.4-2.3-9.6-6.7-17.1-2.1-3.5-4.6-7-7.8-9.5.7.5 1.4 1 2 1.5 3.9 3.3 6.9 8.1 9.2 13.5 2.7 6.1 4.4 12.9 5.4 18.6zm-2.4-5.4c.4 1.6.9 3.4 1.3 5.2-.4-1.3-.8-2.4-1.1-3.2-.1-.2-.2-.6-.4-1-1-2.9-3.5-10.5-7.5-17.8-2.4-4.3-5.3-8.4-8.7-11.5-.5-.4-1-.9-1.5-1.3.2 0 .4.1.6.1 2 1.4 3.8 3.1 5.3 4.8 3.3 3.7 5.3 7.6 5.9 8.7v.1c.5 1 1.7 4.1 3 7.3 1.2 3.3 2.5 6.8 3.1 8.6zM70.2 6.3c-.2 0-.3-.1-.5-.1-.2-.2-.4-.3-.7-.5.1 0 .3.1.4.1.3.2.6.3.8.5zm-1.5-.9c-.1 0-.1 0-.2-.1s-.3-.2-.4-.2l.6.3zm-19.6-.9c-1.3.4-2.6.9-3.8 1.4.6.1 1.1.3 1.6.4l1.2-.6c.7-.3 1.4-.6 2.1-.8-.4-.1-.7-.2-1.1-.4zm-2.4 2c-.6-.2-1.1-.3-1.7-.4-2 .9-4 2-5.8 3.2.9-.1 1.8 0 2.7.1 1.7-1.2 3.3-2.1 4.8-2.9zm36.2 68.8c1.6-2 2.9-3.9 3.9-5.8.1-.6.1-1.2.1-1.9-1 2.6-2.4 5.1-4 7.7zM70.2 6.1c.2.1.3.2.5.3.3.1.5.1.7.2-.3-.1-.7-.3-1.2-.5zm19 34.4c-.4-1.6-.7-3.1-1.1-4.5-.6-1.8-1.9-5.2-3.2-8.5-1.2-3.3-2.5-6.4-3-7.4V20c-.6-1.1-2.6-5-5.9-8.8-1.4-1.6-3.1-3.2-4.9-4.6.4.1.8.3 1.2.4 3.7 2.5 6.7 6.3 9 10.3 4.4 7.5 6.4 15.7 6.7 17.1.5 2.2.9 4.1 1.2 6.1zM68.9 89.2c-.2.1-.4.1-.6.2-.1.1-.2.1-.3.2.3-.1.6-.3.9-.4zM50.7 93c-3.1.2-6.2.3-9.1.3 1.2.2 2.5.3 3.9.4 1.7-.2 3.4-.4 5.2-.7zm-11 1.3 4.7-.3c5.1.5 10.3.2 14.8-1.2.1 0 .3-.1.4-.1 1-.2 2-.5 3-.8-2.7 1-5.6 1.8-8.7 2.2-5.1.8-9.9.8-14.2.2zM10.4 70.4c0 .1.1.3.1.4 0-.3-.1-.6-.1-.9-.1.1 0 .3 0 .5zm5.4-35.5c-.3 6.2 1.4 12.9 4.4 20.1 1.5 3.7 2.3 5.9 3 7.7.9 2.5 1.5 4 3.1 7.3 5 10.7 24.2 20.5 47.3 7.5 2.5-1.5 6.3-4.4 7.9-9.8 1.7-5.3 1.2-13-4.9-24.1C70.5 32.5 63.2 22.4 55.5 16c-2.6-2.2-5.3-3.9-7.9-5-.5.2-1 .5-1.4.8-2.6 1.4-5 2.9-7.3 4.5 1.5-.4 3-.5 4.5-.4 3 .2 5.8 1.3 8.6 3.1 5.6 3.6 10.8 10.1 15.8 17.5 6.8 10.2 9.7 19.1 9.4 25.9-.3 6.8-3.9 11.7-9.9 13.9-7.8 2.9-15.8 4.7-23.4 2-7.6-2.7-14.6-9.9-20.2-24.8-2.4-6.4-4.3-12.4-3.3-18.2.6-3.5 2.2-6.8 5.3-10.2-.3.1-.7.3-1 .4-.2.2-.4.4-.6.5-.1.1-.2.2-.3.2-.7.6-1.2 1.1-1.5 1.3-.6.4-1.5.9-2.7 1.4-1.5 2.1-2.7 4-3.8 6zm3.8-6.1c1-.5 1.9-.9 2.4-1.3.3-.2.8-.6 1.5-1.3l.1-.1.2-.1c.1-.1.2-.1.2-.2-.6.2-1.3.5-1.9.7L20 28.3c-.1.1-.3.3-.4.5zm-.2 0c-.1.1-.1.1 0 0-.1.1-.1.1-.2.1.1 0 .1 0 .2-.1zm1.1-1.2c.4-.3.8-.7 1.2-1-.2.1-.3.1-.5.2-.3.2-.5.5-.7.8zm.9-1.1c.1 0 .2-.1.3-.1.1 0 .2-.1.3-.1 1.2-1 2.6-2.1 4-3.3 8-6.4 13.6-10.5 17.9-13.2-.7-.2-1.3-.3-2-.3-3.1 2-6.6 4.5-10.9 7.8-3.8 2.8-7 5.9-9.6 9.2zM42.1 9.4c.7.1 1.3.2 2 .4 1.7-1 3.1-1.9 4.4-2.5.1 0 .1-.1.2-.1-.6-.2-1.1-.4-1.7-.6-1.5.7-3.1 1.7-4.9 2.8zm5.1-3c.6.2 1.2.4 1.7.6C50 6.5 51 6 52 5.7c-.5-.2-1-.5-1.6-.7-.7.3-1.4.6-2.2 1-.3.1-.6.3-1 .4zm21.6-1.1c.5.2 1.1.4 1.6.7-.3-.1-.6-.2-.8-.3-.3-.2-.6-.3-.8-.4zm-43 19.5c-.3.1-.6.3-.9.4.5-.4 1-.9 1.5-1.3 2.3-2 5.3-4.4 8.9-7 3.2-2.2 6.7-4.5 10.6-6.5.5.2 1 .4 1.4.6-.4.2-.9.5-1.3.7-2.7 1.5-5.3 3.1-7.8 4.8-1.3.4-2.7 1-4.1 1.9a41.9 41.9 0 0 0-8.3 6.4zm9.4-8c3.1-2.2 6.7-4.5 10.5-6.4-.5-.2-1-.3-1.6-.4-4.3 2.7-9.9 6.8-18 13.2-1.3 1.1-2.5 2.1-3.7 3 .7-.2 1.3-.5 2-.7.6-.5 1.2-1.1 1.9-1.7 2.3-2 5.4-4.5 8.9-7zm12.4-5.9c-.5-.2-1-.4-1.4-.6 1.6-.8 3.2-1.6 4.9-2.2.5.2.9.4 1.3.6-1.7.7-3.3 1.4-4.8 2.2zm-1.7-.7c1.6-.8 3.2-1.6 4.9-2.2-.6-.3-1.2-.5-1.9-.8-.1 0-.2.1-.3.2-1.3.6-2.7 1.4-4.3 2.4.6.1 1.1.3 1.6.4zm6.7-1.6c-.4-.2-.8-.4-1.3-.6 1-.4 2-.8 3-1.1.4.2.8.5 1.2.7-1 .3-2 .7-2.9 1zM51 7.9c1-.4 2-.8 3-1.1-.6-.3-1.2-.7-1.8-1-1 .3-2 .7-3.1 1.3.7.3 1.3.5 1.9.8zM40.4 93.3h.2-.2zm44.7-70.5c2.1 4.9 3.7 10.2 4.7 15.1-.7-4.3-1.7-8.8-3.3-13.1-2.6-7.4-6.7-14-12.6-17 .7.4 1.3.9 1.9 1.5 3.9 3.3 7 8.2 9.3 13.5zm-50.8-4.3c1.2-.7 2.3-1.3 3.5-1.7-2.3 1.6-4.5 3.2-6.5 4.6-.6.4-1.1.8-1.7 1.2-1 .7-2.1 1.4-3.3 1.9 2-1.9 4.7-4 8-6zm-4.6 4.3c-1.1.8-2.4 1.5-3.8 2.2-3.3 3.4-4.9 6.9-5.5 10.4-1 5.8.9 11.7 3.3 18.1 5.6 14.9 12.6 22.1 20.1 24.7 7.5 2.7 15.5.9 23.3-2 6-2.2 9.5-7 9.8-13.8.3-6.8-2.6-15.6-9.4-25.8-4.9-7.4-10.2-13.9-15.7-17.5-2.8-1.8-5.6-2.9-8.5-3.1-1.6-.1-3.3.1-4.9.6-2.5 1.7-4.8 3.4-6.9 5-.7.4-1.2.8-1.8 1.2zm21 .4c-4.6-2.9-9.4-3.5-14.5-.8-8.2 4.3-11.5 9.3-11.9 15.1-.4 5.8 2.1 12.3 5.5 19.8 4.8 10.5 11.2 15.4 17.4 17 6.3 1.7 12.6.2 17.2-2.1 2.8-1.4 4.9-3.1 6.3-5.2 1.4-2.1 2.1-4.6 2-7.4-.1-5.7-3-13-8.9-21.8-4.1-6.5-8.5-11.7-13.1-14.6zm.1-.1c4.6 2.9 9 8.1 13.3 14.6C70 46.6 73 53.9 73 59.6c0 2.9-.7 5.4-2.1 7.5-1.4 2.1-3.6 3.9-6.4 5.3-4.7 2.3-11 3.8-17.3 2.1-6.4-1.7-12.7-6.6-17.5-17.2-3.4-7.4-5.9-14-5.5-19.8.4-5.8 3.7-10.9 12-15.3 5.1-2.7 10-2 14.6.9zm-12.7 3.4c4.6-1.8 8.7-1.2 12.6 1.5 3.9 2.6 7.6 7.3 11.1 13.3 3.3 5.7 5.8 11.2 6.2 15.9.2 2.3-.1 4.5-1.1 6.4-1 1.9-2.6 3.6-5.1 5-3.3 1.8-8 2.9-12.9 1.8-4.9-1.2-10-4.6-14.3-11.8-3.9-6.6-6.2-13.3-6-19 .1-2.9.9-5.4 2.4-7.7 1.6-2.3 3.9-4.1 7.1-5.4zm23.8 14.7c-3.5-6-7.2-10.7-11.1-13.3-3.9-2.7-8.2-3.4-12.8-1.5-3.2 1.3-5.6 3.1-7.1 5.4-1.6 2.2-2.3 4.9-2.4 7.7-.2 5.8 2.1 12.5 6 19.1 4.3 7.3 9.5 10.7 14.4 11.9 4.9 1.2 9.6.1 13-1.8 2.5-1.4 4.2-3.1 5.2-5s1.3-4.1 1.1-6.5c-.4-4.8-2.9-10.3-6.3-16zm-12.7-9.5c-3.3-2-6.9-2.4-10.5-.7-3.9 1.8-5.9 5.6-6 10.2-.1 4.6 1.6 10 5.1 15.2 4 6.1 8.5 8.6 12.4 9.3 3.9.7 7.3-.4 9.1-1.5 2.6-1.6 3.8-4.7 3.6-8.6-.2-3.9-1.7-8.5-4.4-13.2-2.8-5-6-8.6-9.3-10.7zm.1-.1c3.4 2.1 6.5 5.8 9.4 10.7 2.7 4.7 4.2 9.4 4.4 13.3.2 3.9-1 7.1-3.7 8.7-1.9 1.2-5.3 2.3-9.3 1.5-4-.7-8.4-3.3-12.5-9.4-3.5-5.2-5.2-10.7-5.1-15.3.1-4.6 2.1-8.4 6.1-10.3 3.7-1.7 7.3-1.3 10.7.8zm-8.7 3.6c2.2-1.1 4.8-.9 7.4.4 2.6 1.3 5 3.8 7 7.3 2 3.4 3.2 7.1 3.4 10.2.2 3.1-.6 5.6-2.6 6.9-1.5.9-3.8 1.6-6.5 1-2.7-.7-5.9-2.7-8.9-7.3-2.7-4.1-3.6-8.2-3.4-11.5.2-3.4 1.7-6 3.6-7zm14.5 7.6c-2-3.5-4.5-6-7.1-7.3-2.6-1.4-5.3-1.6-7.5-.4-2 1-3.5 3.7-3.7 7-.3 3.4.7 7.5 3.4 11.6 3.1 4.6 6.2 6.7 9 7.3 2.8.7 5.2-.1 6.7-1 2.1-1.3 2.9-3.9 2.7-7-.2-3.1-1.5-6.7-3.5-10.2zM47.5 40c1.6.8 3.1 2.3 4.4 4.5v.1c1.3 2.2 1.9 4.5 2 6.5.1 2-.4 3.6-1.5 4.3-.8.5-1.7.8-2.8.7a6.46 6.46 0 0 1-3.4-1.3c-1.1-.8-2.3-2-3.5-3.8-1.7-2.6-2.1-5.1-1.9-7.2.3-2.1 1.2-3.6 2.1-4.1 1.4-.7 3-.6 4.6.3zm.2-.3c1.6.9 3.1 2.5 4.4 4.6 1.3 2.2 2 4.6 2.1 6.7.1 2-.4 3.7-1.6 4.4a4.99 4.99 0 0 1-4.4.5c-.6-.2-1.3-.6-2-1.1-1.1-.8-2.3-2-3.4-3.7-1.7-2.6-2.2-5.3-2-7.4.2-2.1 1.1-3.8 2.3-4.4 1.3-.6 3-.4 4.6.4z" class="st1"/></svg>